<svg xmlns="http://www.w3.org/2000/svg" xmlns:xlink="http://www.w3.org/1999/xlink" width="1080" zoomAndPan="magnify" viewBox="0 0 810 809.999993" height="1080" preserveAspectRatio="xMidYMid meet" version="1.0"><defs><clipPath id="e6c918b559"><path d="M 22 146 L 789.703125 146 L 789.703125 663 L 22 663 Z M 22 146 " clip-rule="nonzero"/></clipPath></defs><g clip-path="url(#e6c918b559)"><path fill="#8dc63f" d="M 405.417969 607.433594 L 155.507812 607.433594 C 140.242188 607.433594 128.738281 594.882812 130.203125 579.617188 C 131.457031 564.351562 145.050781 552.011719 160.320312 552.011719 L 309.84375 552.011719 C 329.710938 552.011719 347.28125 535.699219 349.160156 515.832031 C 350.625 497.847656 338.707031 482.792969 321.765625 480.074219 L 245.851562 480.074219 C 230.585938 480.074219 219.082031 467.523438 220.546875 452.257812 C 221.800781 436.992188 235.394531 424.445312 250.664062 424.445312 L 452.054688 424.445312 L 445.359375 501.195312 C 444.734375 509.140625 450.378906 515.414062 458.328125 515.414062 L 524.410156 515.414062 C 532.148438 515.414062 539.050781 509.140625 539.679688 501.195312 L 546.371094 424.445312 L 623.121094 424.445312 C 630.859375 424.445312 637.96875 418.171875 638.597656 410.433594 L 644.453125 344.140625 C 645.078125 336.402344 639.222656 330.128906 631.277344 330.128906 L 554.734375 330.128906 L 561.425781 253.378906 C 562.054688 245.640625 556.410156 239.15625 548.460938 239.15625 L 482.375 239.15625 C 474.640625 239.15625 467.738281 245.640625 467.109375 253.378906 L 460.210938 330.128906 L 47.808594 330.128906 C 32.539062 330.128906 21.039062 317.578125 22.503906 302.3125 C 23.757812 287.046875 37.351562 274.5 52.617188 274.5 L 300.851562 274.5 C 320.71875 274.5 338.496094 258.394531 340.167969 238.320312 C 341.84375 219.5 328.457031 203.8125 310.054688 202.351562 L 310.265625 202.140625 L 287.257812 202.140625 C 271.992188 202.140625 260.699219 189.800781 261.957031 174.535156 C 263.210938 159.269531 276.804688 146.722656 292.070312 146.722656 L 524.828125 146.722656 C 592.585938 147.558594 659.089844 165.753906 723.503906 200.050781 C 741.070312 209.460938 750.898438 226.609375 750.269531 247.3125 C 745.667969 413.359375 670.382812 572.925781 500.988281 635.875 C 486.976562 641.101562 473.59375 641.101562 460.417969 635.875 C 440.34375 627.925781 422.148438 618.308594 405.417969 607.433594 Z M 195.035156 202.140625 L 161.78125 202.140625 C 146.515625 202.140625 135.015625 189.800781 136.476562 174.535156 C 137.734375 159.269531 151.324219 146.722656 166.59375 146.722656 L 199.84375 146.722656 C 215.109375 146.722656 226.613281 159.269531 225.148438 174.535156 C 223.894531 189.800781 210.300781 202.140625 195.035156 202.140625 Z M 156.136719 480.074219 L 84.195312 480.074219 C 68.929688 480.074219 57.636719 467.523438 58.890625 452.257812 C 60.355469 436.992188 73.949219 424.445312 89.214844 424.445312 L 160.945312 424.445312 C 176.210938 424.445312 187.714844 436.992188 186.25 452.257812 C 184.996094 467.523438 171.402344 480.074219 156.136719 480.074219 Z M 772.019531 228.699219 C 783.730469 238.527344 790.003906 252.957031 789.585938 269.6875 C 784.984375 435.738281 709.699219 595.300781 540.515625 658.25 C 527.128906 663.058594 514.582031 663.480469 502.242188 659.085938 C 503.917969 658.667969 505.800781 658.042969 507.472656 657.414062 C 686.90625 590.703125 768.464844 421.726562 773.484375 245.847656 C 773.484375 239.992188 773.066406 234.347656 772.019531 228.699219 Z M 772.019531 228.699219 " fill-opacity="1" fill-rule="evenodd"/></g></svg>