<svg xmlns="http://www.w3.org/2000/svg" xmlns:xlink="http://www.w3.org/1999/xlink" width="1080" zoomAndPan="magnify" viewBox="0 0 810 809.999993" height="1080" preserveAspectRatio="xMidYMid meet" version="1.0"><defs><clipPath id="5c47f8d9f5"><path d="M 170.917969 185 L 564 185 L 564 693 L 170.917969 693 Z M 170.917969 185 " clip-rule="nonzero"/></clipPath><clipPath id="dc46eb3837"><path d="M 246 117.035156 L 638.917969 117.035156 L 638.917969 625 L 246 625 Z M 246 117.035156 " clip-rule="nonzero"/></clipPath></defs><rect x="-81" width="972" fill="#ffffff" y="-80.999999" height="971.999992" fill-opacity="1"/><rect x="-81" width="972" fill="#ffffff" y="-80.999999" height="971.999992" fill-opacity="1"/><g clip-path="url(#5c47f8d9f5)"><path fill="#8dc63f" d="M 563.496094 643.054688 L 563.496094 680.632812 C 563.496094 687.398438 558.335938 692.921875 552.015625 692.921875 L 182.390625 692.921875 C 176.066406 692.921875 170.9375 687.398438 170.9375 680.632812 L 170.9375 197.289062 C 170.9375 190.523438 176.066406 185.003906 182.390625 185.003906 L 228.339844 185.003906 L 228.339844 612.628906 C 228.339844 629.398438 241.609375 643.054688 257.9375 643.054688 L 563.496094 643.054688 " fill-opacity="1" fill-rule="nonzero"/></g><g clip-path="url(#dc46eb3837)"><path fill="#8dc63f" d="M 540.84375 223.023438 C 534.523438 223.023438 529.390625 217.53125 529.390625 210.738281 L 529.390625 123.375 L 632.433594 223.023438 Z M 553.414062 393.917969 C 549.839844 397.363281 544.914062 399.492188 539.5 399.492188 L 384.621094 399.492188 C 373.734375 399.492188 364.921875 390.960938 364.921875 380.441406 C 364.921875 375.210938 367.125 370.4375 370.675781 366.992188 C 374.277344 363.542969 379.175781 361.417969 384.621094 361.417969 L 539.5 361.417969 C 550.359375 361.417969 559.195312 369.945312 559.195312 380.441406 C 559.195312 385.703125 556.964844 390.46875 553.414062 393.917969 Z M 553.414062 471.382812 C 549.839844 474.804688 544.914062 476.953125 539.5 476.953125 L 384.621094 476.953125 C 373.734375 476.953125 364.921875 468.402344 364.921875 457.90625 C 364.921875 452.644531 367.125 447.90625 370.675781 444.433594 C 374.277344 441.007812 379.175781 438.859375 384.621094 438.859375 L 539.5 438.859375 C 550.359375 438.859375 559.195312 447.410156 559.195312 457.90625 C 559.195312 463.167969 556.964844 467.910156 553.414062 471.382812 Z M 553.414062 548.824219 C 549.839844 552.269531 544.914062 554.394531 539.5 554.394531 L 384.621094 554.394531 C 373.734375 554.394531 364.921875 545.894531 364.921875 535.371094 C 364.921875 530.113281 367.125 525.367188 370.675781 521.921875 C 374.277344 518.503906 379.175781 516.347656 384.621094 516.347656 L 539.5 516.347656 C 550.359375 516.347656 559.195312 524.851562 559.195312 535.371094 C 559.195312 540.609375 556.964844 545.398438 553.414062 548.824219 Z M 380.5 185.003906 C 395.816406 168.363281 418.054688 157.867188 442.75 157.867188 C 488.832031 157.867188 526.332031 194.359375 526.332031 239.226562 C 526.332031 242.277344 526.148438 245.285156 525.816406 248.242188 C 521.203125 288.902344 485.691406 320.625 442.75 320.625 C 396.671875 320.625 359.195312 284.113281 359.195312 239.226562 C 359.195312 218.410156 367.28125 199.414062 380.5 185.003906 Z M 325.347656 399.492188 C 314.460938 399.492188 305.652344 390.960938 305.652344 380.441406 C 305.652344 369.945312 314.460938 361.417969 325.347656 361.417969 C 336.207031 361.417969 345.019531 369.945312 345.019531 380.441406 C 345.019531 390.960938 336.207031 399.492188 325.347656 399.492188 Z M 325.347656 476.953125 C 314.460938 476.953125 305.652344 468.402344 305.652344 457.90625 C 305.652344 447.410156 314.460938 438.859375 325.347656 438.859375 C 336.207031 438.859375 345.019531 447.410156 345.019531 457.90625 C 345.019531 468.402344 336.207031 476.953125 325.347656 476.953125 Z M 325.347656 554.394531 C 314.460938 554.394531 305.652344 545.894531 305.652344 535.371094 C 305.652344 524.851562 314.460938 516.347656 325.347656 516.347656 C 336.207031 516.347656 345.019531 524.851562 345.019531 535.371094 C 345.019531 545.894531 336.207031 554.394531 325.347656 554.394531 Z M 636.222656 213.953125 L 538.742188 119.71875 C 536.957031 117.957031 534.546875 117.023438 532.007812 117.023438 L 257.9375 117.023438 C 251.617188 117.023438 246.484375 122.523438 246.484375 129.3125 L 246.484375 612.628906 C 246.484375 619.421875 251.617188 624.914062 257.9375 624.914062 L 627.5625 624.914062 C 633.886719 624.914062 639.019531 619.421875 639.019531 612.628906 L 639.019531 220.484375 C 639.019531 218.023438 638.007812 215.714844 636.222656 213.953125 " fill-opacity="1" fill-rule="nonzero"/></g><path fill="#8dc63f" d="M 487.691406 255.757812 L 459.804688 255.757812 L 459.804688 282.683594 L 425.699219 282.683594 L 425.699219 255.757812 L 397.8125 255.757812 L 397.8125 222.738281 L 425.699219 222.738281 L 425.699219 195.8125 L 459.804688 195.8125 L 459.804688 222.738281 L 487.691406 222.738281 Z M 514.957031 237.746094 C 514.179688 199.929688 482.066406 169.375 442.75 169.375 C 425.566406 169.375 409.734375 175.234375 397.316406 185.003906 C 380.964844 197.78125 370.523438 217.347656 370.523438 239.226562 C 370.523438 277.757812 402.917969 309.066406 442.75 309.066406 C 482.582031 309.066406 515.003906 277.757812 515.003906 239.226562 C 515.003906 238.730469 515.003906 238.234375 514.957031 237.746094 " fill-opacity="1" fill-rule="nonzero"/></svg>