<svg xmlns="http://www.w3.org/2000/svg" xmlns:xlink="http://www.w3.org/1999/xlink" width="1080" zoomAndPan="magnify" viewBox="0 0 810 809.999993" height="1080" preserveAspectRatio="xMidYMid meet" version="1.0"><defs><clipPath id="b099520f3a"><path d="M 110.722656 134 L 696 134 L 696 677 L 110.722656 677 Z M 110.722656 134 " clip-rule="nonzero"/></clipPath></defs><rect x="-81" width="972" fill="#ffffff" y="-80.999999" height="971.999992" fill-opacity="1"/><rect x="-81" width="972" fill="#ffffff" y="-80.999999" height="971.999992" fill-opacity="1"/><path fill="#8dc63f" d="M 240.789062 372.480469 L 457.566406 372.480469 L 457.566406 394.160156 L 240.789062 394.160156 Z M 240.789062 372.480469 " fill-opacity="1" fill-rule="nonzero"/><path fill="#8dc63f" d="M 240.789062 307.449219 L 457.566406 307.449219 L 457.566406 329.125 L 240.789062 329.125 Z M 240.789062 307.449219 " fill-opacity="1" fill-rule="nonzero"/><path fill="#8dc63f" d="M 240.789062 242.414062 L 327.5 242.414062 L 327.5 264.09375 L 240.789062 264.09375 Z M 240.789062 242.414062 " fill-opacity="1" fill-rule="nonzero"/><g clip-path="url(#b099520f3a)"><path fill="#8dc63f" d="M 121.5625 675.96875 L 403.371094 675.96875 C 409.332031 675.96875 414.210938 671.09375 414.210938 665.132812 L 414.210938 632.613281 L 446.726562 632.613281 C 452.6875 632.613281 457.566406 627.738281 457.566406 621.777344 L 457.566406 589.257812 L 490.082031 589.257812 C 496.046875 589.257812 500.921875 584.382812 500.921875 578.421875 L 500.921875 467.753906 L 686.484375 282.195312 C 699.164062 269.511719 699.164062 248.917969 686.484375 236.238281 C 673.800781 223.554688 653.207031 223.554688 640.527344 236.238281 L 500.921875 375.839844 L 500.921875 210.007812 C 500.921875 207.082031 499.730469 204.371094 497.777344 202.3125 L 432.746094 137.277344 C 430.6875 135.21875 427.976562 134.136719 425.050781 134.136719 L 208.273438 134.136719 C 202.3125 134.136719 197.433594 139.011719 197.433594 144.972656 L 197.433594 177.492188 L 164.917969 177.492188 C 158.957031 177.492188 154.078125 182.367188 154.078125 188.328125 L 154.078125 220.847656 L 121.5625 220.847656 C 115.601562 220.847656 110.722656 225.722656 110.722656 231.683594 L 110.722656 665.238281 C 110.722656 671.199219 115.601562 676.078125 121.5625 676.078125 Z M 617.546875 289.78125 L 632.832031 305.0625 L 464.179688 473.714844 L 448.894531 458.433594 Z M 219.113281 155.703125 L 414.210938 155.703125 L 414.210938 209.898438 C 414.210938 215.859375 419.089844 220.738281 425.050781 220.738281 L 479.246094 220.738281 L 479.246094 397.410156 L 439.140625 437.515625 L 240.789062 437.515625 L 240.789062 459.191406 L 420.496094 459.191406 L 394.484375 502.546875 L 240.789062 502.546875 L 240.789062 524.226562 L 381.476562 524.226562 L 378.335938 529.535156 C 375.734375 533.765625 376.492188 539.292969 379.960938 542.761719 C 382.019531 544.820312 384.839844 545.902344 387.65625 545.902344 C 389.605469 545.902344 391.449219 545.363281 393.183594 544.386719 L 469.816406 498.429688 C 470.574219 497.996094 471.222656 497.453125 471.875 496.804688 L 479.246094 489.433594 L 479.246094 567.582031 L 219.113281 567.582031 Z M 132.402344 242.414062 L 154.078125 242.414062 L 154.078125 621.777344 C 154.078125 627.738281 158.957031 632.613281 164.917969 632.613281 L 392.535156 632.613281 L 392.535156 654.292969 L 132.402344 654.292969 Z M 132.402344 242.414062 " fill-opacity="1" fill-rule="nonzero"/></g><path fill="#8dc63f" d="M 349.179688 242.414062 L 370.855469 242.414062 L 370.855469 264.09375 L 349.179688 264.09375 Z M 349.179688 242.414062 " fill-opacity="1" fill-rule="nonzero"/><path fill="#8dc63f" d="M 392.535156 242.414062 L 414.210938 242.414062 L 414.210938 264.09375 L 392.535156 264.09375 Z M 392.535156 242.414062 " fill-opacity="1" fill-rule="nonzero"/><path fill="#8dc63f" d="M 435.890625 242.414062 L 457.566406 242.414062 L 457.566406 264.09375 L 435.890625 264.09375 Z M 435.890625 242.414062 " fill-opacity="1" fill-rule="nonzero"/></svg>