<svg xmlns="http://www.w3.org/2000/svg" xmlns:xlink="http://www.w3.org/1999/xlink" width="1080" zoomAndPan="magnify" viewBox="0 0 810 809.999993" height="1080" preserveAspectRatio="xMidYMid meet" version="1.0"><defs><clipPath id="97b83d43d2"><path d="M 123.472656 445 L 685 445 L 685 642 L 123.472656 642 Z M 123.472656 445 " clip-rule="nonzero"/></clipPath></defs><rect x="-81" width="972" fill="#ffffff" y="-80.999999" height="971.999992" fill-opacity="1"/><rect x="-81" width="972" fill="#ffffff" y="-80.999999" height="971.999992" fill-opacity="1"/><g clip-path="url(#97b83d43d2)"><path fill="#8dc63f" d="M 189.898438 637.78125 C 221.601562 624.136719 233.070312 576.828125 304.398438 600.628906 C 343.613281 613.710938 388.800781 627.636719 429.972656 636.09375 C 459.527344 642.164062 477.332031 645.347656 500.257812 629.898438 L 642.25 530.363281 C 653.558594 522.53125 682.742188 505.492188 684.039062 489.636719 C 686.359375 461.242188 658.082031 459.289062 637.734375 471.226562 C 603.53125 491.292969 573.578125 514.125 540.726562 535.203125 C 500.640625 560.929688 526.5 613.738281 443.75 584.992188 C 421.175781 577.148438 345.464844 549.566406 332.429688 536.339844 C 333.8125 499.863281 381.308594 531.40625 400.40625 539.132812 C 413.238281 544.324219 465.132812 567.640625 475.507812 567.84375 C 490.382812 568.136719 503.597656 556.164062 500.46875 539.746094 C 497.851562 526.015625 483.066406 522.433594 471 517.414062 L 321.757812 456.8125 C 287.4375 442.550781 268.988281 439.53125 241.035156 459.785156 C 222.175781 473.453125 138.707031 541.800781 123.628906 549.183594 C 131.3125 569.375 178.765625 614.828125 189.898438 637.78125 Z M 189.898438 637.78125 " fill-opacity="1" fill-rule="evenodd"/></g><path fill="#8dc63f" d="M 413.558594 278.683594 C 429.445312 276.347656 428.304688 278.277344 433.261719 282.886719 L 436.023438 286.851562 C 449.675781 262.609375 489.476562 278.433594 488.78125 317.570312 C 488.476562 334.617188 482.117188 346.691406 470.699219 353.195312 C 458.429688 360.183594 449.425781 356.808594 438.3125 350.894531 L 433.796875 383.90625 L 413.21875 383.171875 Z M 306.3125 248.738281 C 332.03125 247.039062 412.082031 239.050781 391.261719 290.496094 C 386.847656 301.398438 377.523438 303.316406 368.722656 308.917969 C 380.683594 319.679688 392.613281 336.40625 401.222656 355.421875 C 371.042969 355.128906 376.183594 355.421875 363.023438 335.082031 C 353 319.59375 352.015625 311.441406 327.804688 310.453125 L 327.804688 354.816406 L 306.234375 354.835938 Z M 365.9375 181.195312 C 301.113281 194.703125 244.238281 256.019531 261.273438 339.273438 C 274.160156 402.253906 339.347656 458.992188 418.796875 441.96875 C 482.125 428.402344 538.5625 365.167969 522.0625 285.160156 C 508.90625 221.375 445.386719 164.644531 365.9375 181.195312 Z M 365.9375 181.195312 " fill-opacity="1" fill-rule="evenodd"/><path fill="#8dc63f" d="M 495.757812 501.527344 C 501.820312 508.136719 508.453125 516.539062 515.660156 525.382812 C 528.628906 520.410156 552.984375 501.546875 565.1875 493.621094 C 581.566406 482.984375 596.703125 473.367188 613.484375 461.28125 C 606.679688 420.289062 574.222656 448.839844 557.277344 459.84375 Z M 495.757812 501.527344 " fill-opacity="1" fill-rule="evenodd"/><path fill="#8dc63f" d="M 445.832031 485.242188 C 470.253906 498.011719 477.492188 487.8125 495.496094 475.613281 C 509.828125 465.90625 527.832031 455.339844 541.472656 444.03125 C 528.523438 411.191406 492.585938 446.578125 457.003906 471.550781 C 448.527344 477.5 448.886719 476.292969 445.832031 485.242188 Z M 445.832031 485.242188 " fill-opacity="1" fill-rule="evenodd"/><path fill="#8dc63f" d="M 434 323.289062 C 438.394531 350.792969 473.800781 346.777344 467.121094 309.070312 C 462.644531 283.800781 428.054688 286.0625 434 323.289062 Z M 434 323.289062 " fill-opacity="1" fill-rule="evenodd"/><path fill="#8dc63f" d="M 366.785156 289.496094 C 367.535156 285.140625 373.300781 290.15625 369.796875 270.296875 C 356.199219 264.425781 346.375 266.296875 328.109375 266.289062 L 327.902344 293.550781 C 341.769531 293.539062 356.535156 295.457031 366.785156 289.496094 Z M 366.785156 289.496094 " fill-opacity="1" fill-rule="evenodd"/></svg>