<svg xmlns="http://www.w3.org/2000/svg" xmlns:xlink="http://www.w3.org/1999/xlink" width="1080" zoomAndPan="magnify" viewBox="0 0 810 809.999993" height="1080" preserveAspectRatio="xMidYMid meet" version="1.0"><defs><clipPath id="31360f4ec0"><path d="M 131 658 L 679.125 658 L 679.125 676.617188 L 131 676.617188 Z M 131 658 " clip-rule="nonzero"/></clipPath></defs><rect x="-81" width="972" fill="#ffffff" y="-80.999999" height="971.999992" fill-opacity="1"/><rect x="-81" width="972" fill="#ffffff" y="-80.999999" height="971.999992" fill-opacity="1"/><path fill="#8dc63f" d="M 423.269531 618.382812 C 423.269531 619.277344 423.222656 620.167969 423.136719 621.058594 C 423.046875 621.949219 422.914062 622.832031 422.738281 623.710938 C 422.5625 624.589844 422.347656 625.453125 422.085938 626.3125 C 421.824219 627.167969 421.523438 628.007812 421.179688 628.835938 C 420.839844 629.660156 420.457031 630.46875 420.035156 631.257812 C 419.613281 632.046875 419.152344 632.8125 418.65625 633.554688 C 418.15625 634.300781 417.625 635.015625 417.058594 635.707031 C 416.488281 636.398438 415.890625 637.0625 415.257812 637.695312 C 414.625 638.328125 413.960938 638.925781 413.269531 639.496094 C 412.578125 640.0625 411.863281 640.59375 411.117188 641.09375 C 410.375 641.589844 409.609375 642.050781 408.820312 642.472656 C 408.03125 642.894531 407.222656 643.277344 406.398438 643.617188 C 405.570312 643.960938 404.730469 644.261719 403.875 644.523438 C 403.015625 644.785156 402.152344 645.003906 401.273438 645.175781 C 400.394531 645.351562 399.511719 645.484375 398.621094 645.574219 C 397.730469 645.660156 396.839844 645.707031 395.945312 645.707031 L 248.066406 645.707031 C 247.171875 645.707031 246.277344 645.660156 245.390625 645.574219 C 244.5 645.484375 243.617188 645.351562 242.738281 645.175781 C 241.863281 645 240.996094 644.78125 240.140625 644.523438 C 239.285156 644.261719 238.445312 643.960938 237.621094 643.617188 C 236.792969 643.273438 235.988281 642.890625 235.199219 642.46875 C 234.410156 642.046875 233.644531 641.585938 232.902344 641.089844 C 232.160156 640.59375 231.441406 640.058594 230.75 639.492188 C 230.058594 638.921875 229.398438 638.324219 228.765625 637.691406 C 228.136719 637.058594 227.535156 636.394531 226.96875 635.703125 C 226.402344 635.011719 225.871094 634.296875 225.375 633.550781 C 224.878906 632.808594 224.417969 632.042969 223.996094 631.253906 C 223.578125 630.464844 223.195312 629.65625 222.851562 628.832031 C 222.511719 628.003906 222.210938 627.164062 221.953125 626.308594 C 221.691406 625.453125 221.476562 624.585938 221.300781 623.707031 C 221.125 622.832031 220.996094 621.949219 220.90625 621.058594 C 220.820312 620.167969 220.777344 619.277344 220.777344 618.382812 C 220.777344 617.488281 220.820312 616.597656 220.90625 615.707031 C 220.996094 614.816406 221.125 613.933594 221.300781 613.054688 C 221.476562 612.179688 221.691406 611.3125 221.953125 610.457031 C 222.210938 609.601562 222.511719 608.761719 222.851562 607.933594 C 223.195312 607.109375 223.578125 606.300781 223.996094 605.511719 C 224.417969 604.722656 224.878906 603.957031 225.375 603.210938 C 225.871094 602.46875 226.402344 601.75 226.96875 601.058594 C 227.535156 600.367188 228.136719 599.707031 228.765625 599.074219 C 229.398438 598.441406 230.058594 597.839844 230.75 597.273438 C 231.441406 596.703125 232.160156 596.171875 232.902344 595.675781 C 233.644531 595.175781 234.410156 594.71875 235.199219 594.296875 C 235.988281 593.875 236.792969 593.492188 237.621094 593.148438 C 238.445312 592.804688 239.285156 592.503906 240.140625 592.242188 C 240.996094 591.980469 241.863281 591.761719 242.738281 591.589844 C 243.617188 591.414062 244.5 591.28125 245.390625 591.191406 C 246.277344 591.101562 247.171875 591.058594 248.066406 591.054688 L 396.441406 591.054688 C 398.871094 591.097656 401.25 591.460938 403.582031 592.140625 C 405.917969 592.820312 408.117188 593.800781 410.1875 595.070312 C 410.503906 595.3125 410.835938 595.527344 411.1875 595.714844 C 413.046875 596.964844 414.726562 598.417969 416.226562 600.082031 C 417.730469 601.742188 419.007812 603.5625 420.0625 605.539062 C 421.113281 607.515625 421.914062 609.589844 422.457031 611.761719 C 423 613.9375 423.269531 616.140625 423.269531 618.382812 Z M 423.269531 618.382812 " fill-opacity="1" fill-rule="nonzero"/><path fill="#8dc63f" d="M 660.78125 429.714844 C 659.875 428.800781 658.890625 427.984375 657.820312 427.265625 C 656.753906 426.546875 655.625 425.941406 654.4375 425.449219 C 653.25 424.953125 652.023438 424.582031 650.761719 424.328125 C 649.5 424.078125 648.226562 423.953125 646.941406 423.953125 L 562.515625 423.953125 C 560.601562 423.953125 558.871094 423.394531 557.320312 422.277344 L 497.875 379.542969 L 457.792969 379.542969 C 455.925781 380.980469 454.003906 382.339844 452.023438 383.621094 C 450.046875 384.902344 448.015625 386.097656 445.941406 387.210938 C 443.863281 388.324219 441.742188 389.351562 439.582031 390.292969 C 437.417969 391.234375 435.222656 392.082031 432.992188 392.84375 C 430.757812 393.601562 428.5 394.269531 426.214844 394.84375 C 423.929688 395.417969 421.621094 395.898438 419.296875 396.28125 C 416.972656 396.667969 414.632812 396.957031 412.285156 397.148438 C 409.933594 397.34375 407.582031 397.441406 405.226562 397.441406 C 402.867188 397.441406 400.515625 397.34375 398.164062 397.148438 C 395.816406 396.957031 393.476562 396.667969 391.152344 396.28125 C 388.828125 395.898438 386.519531 395.417969 384.234375 394.84375 C 381.949219 394.269531 379.691406 393.601562 377.457031 392.84375 C 375.226562 392.082031 373.03125 391.234375 370.867188 390.292969 C 368.707031 389.351562 366.585938 388.324219 364.511719 387.210938 C 362.433594 386.097656 360.40625 384.902344 358.425781 383.621094 C 356.445312 382.339844 354.523438 380.980469 352.65625 379.542969 L 312.554688 379.542969 L 253.128906 422.289062 C 251.578125 423.40625 249.847656 423.964844 247.9375 423.964844 L 163.511719 423.964844 C 162.867188 423.964844 162.226562 424 161.589844 424.0625 C 160.949219 424.125 160.316406 424.21875 159.683594 424.347656 C 159.054688 424.472656 158.433594 424.628906 157.820312 424.816406 C 157.203125 425.003906 156.601562 425.21875 156.007812 425.464844 C 155.414062 425.710938 154.835938 425.984375 154.269531 426.289062 C 153.703125 426.59375 153.152344 426.921875 152.617188 427.28125 C 152.085938 427.636719 151.570312 428.019531 151.074219 428.425781 C 150.578125 428.832031 150.101562 429.265625 149.648438 429.71875 C 149.195312 430.171875 148.761719 430.648438 148.355469 431.144531 C 147.949219 431.640625 147.566406 432.15625 147.210938 432.691406 C 146.851562 433.222656 146.523438 433.773438 146.21875 434.339844 C 145.917969 434.90625 145.644531 435.488281 145.398438 436.078125 C 145.152344 436.671875 144.933594 437.277344 144.746094 437.890625 C 144.5625 438.503906 144.40625 439.128906 144.277344 439.757812 C 144.152344 440.386719 144.058594 441.023438 143.996094 441.660156 C 143.933594 442.300781 143.898438 442.941406 143.898438 443.582031 C 143.902344 444.226562 143.933594 444.863281 144 445.503906 C 144.066406 446.144531 144.160156 446.777344 144.289062 447.40625 C 144.414062 448.035156 144.570312 448.65625 144.757812 449.269531 C 144.945312 449.886719 145.164062 450.488281 145.410156 451.082031 C 145.65625 451.675781 145.929688 452.253906 146.234375 452.820312 C 146.539062 453.386719 146.867188 453.9375 147.222656 454.46875 C 147.582031 455.003906 147.964844 455.519531 148.371094 456.015625 C 148.777344 456.511719 149.207031 456.988281 149.660156 457.441406 C 150.117188 457.894531 150.589844 458.328125 151.085938 458.734375 C 151.582031 459.140625 152.097656 459.523438 152.628906 459.882812 C 153.164062 460.242188 153.710938 460.570312 154.277344 460.875 C 154.84375 461.179688 155.421875 461.457031 156.015625 461.703125 C 156.605469 461.949219 157.210938 462.167969 157.824219 462.355469 C 158.4375 462.546875 159.058594 462.703125 159.6875 462.832031 C 160.316406 462.960938 160.949219 463.054688 161.589844 463.121094 C 162.226562 463.1875 162.867188 463.222656 163.511719 463.226562 L 252.445312 463.226562 C 252.851562 463.226562 253.246094 463.226562 253.640625 463.1875 C 253.941406 463.171875 254.242188 463.171875 254.542969 463.1875 C 256.429688 463.292969 258.296875 463.128906 260.136719 462.6875 C 261.976562 462.25 263.71875 461.558594 265.355469 460.609375 L 298.964844 441.203125 C 299.640625 440.8125 300.359375 440.519531 301.113281 440.316406 C 301.871094 440.113281 302.640625 440.015625 303.421875 440.015625 C 304.203125 440.015625 304.972656 440.117188 305.726562 440.320312 C 306.484375 440.523438 307.199219 440.824219 307.875 441.214844 C 308.550781 441.605469 309.167969 442.078125 309.71875 442.632812 C 310.269531 443.1875 310.742188 443.804688 311.132812 444.480469 C 311.523438 445.160156 311.816406 445.875 312.019531 446.632812 C 312.21875 447.386719 312.320312 448.15625 312.316406 448.9375 L 312.316406 573.320312 L 396.390625 573.320312 C 403.101562 573.355469 409.484375 574.828125 415.535156 577.734375 C 421.714844 574.742188 428.238281 573.25 435.101562 573.257812 L 498.15625 573.257812 L 498.15625 448.875 C 498.15625 448.089844 498.253906 447.324219 498.457031 446.566406 C 498.65625 445.8125 498.953125 445.09375 499.34375 444.417969 C 499.734375 443.738281 500.203125 443.121094 500.757812 442.570312 C 501.308594 442.015625 501.921875 441.542969 502.601562 441.148438 C 503.277344 440.757812 503.992188 440.460938 504.75 440.257812 C 505.503906 440.054688 506.273438 439.953125 507.054688 439.949219 C 507.835938 439.949219 508.605469 440.050781 509.359375 440.25 C 510.117188 440.453125 510.832031 440.75 511.511719 441.140625 L 545.121094 460.546875 C 546.757812 461.492188 548.496094 462.1875 550.339844 462.625 C 552.179688 463.0625 554.042969 463.230469 555.933594 463.121094 C 556.234375 463.105469 556.535156 463.105469 556.835938 463.121094 C 557.230469 463.121094 557.621094 463.160156 558.027344 463.160156 L 646.964844 463.160156 C 647.929688 463.160156 648.886719 463.085938 649.835938 462.945312 C 650.789062 462.800781 651.726562 462.589844 652.648438 462.308594 C 653.570312 462.027344 654.464844 461.679688 655.332031 461.269531 C 656.203125 460.855469 657.039062 460.382812 657.839844 459.84375 C 658.636719 459.308594 659.394531 458.71875 660.105469 458.070312 C 660.820312 457.421875 661.480469 456.726562 662.089844 455.980469 C 662.699219 455.238281 663.253906 454.449219 663.746094 453.625 C 664.242188 452.796875 664.671875 451.941406 665.039062 451.050781 C 665.40625 450.160156 665.707031 449.25 665.941406 448.3125 C 666.171875 447.378906 666.335938 446.433594 666.429688 445.476562 C 666.523438 444.515625 666.546875 443.558594 666.5 442.59375 C 666.453125 441.632812 666.332031 440.679688 666.144531 439.738281 C 665.957031 438.792969 665.699219 437.867188 665.375 436.960938 C 665.050781 436.054688 664.660156 435.175781 664.207031 434.328125 C 663.753906 433.480469 663.238281 432.667969 662.664062 431.894531 C 662.089844 431.121094 661.464844 430.394531 660.78125 429.714844 Z M 462.988281 482.289062 L 411.527344 533.761719 C 411.113281 534.175781 410.664062 534.546875 410.179688 534.871094 C 409.691406 535.195312 409.179688 535.472656 408.640625 535.695312 C 408.097656 535.917969 407.542969 536.085938 406.96875 536.203125 C 406.394531 536.316406 405.816406 536.375 405.230469 536.375 C 404.648438 536.375 404.066406 536.316406 403.492188 536.203125 C 402.921875 536.085938 402.363281 535.917969 401.824219 535.695312 C 401.28125 535.472656 400.769531 535.195312 400.285156 534.871094 C 399.796875 534.546875 399.347656 534.175781 398.933594 533.761719 L 347.460938 482.289062 C 346.660156 481.46875 345.898438 480.609375 345.183594 479.714844 C 344.464844 478.820312 343.792969 477.894531 343.164062 476.933594 C 342.535156 475.972656 341.957031 474.984375 341.425781 473.964844 C 340.894531 472.949219 340.414062 471.90625 339.984375 470.84375 C 339.554688 469.78125 339.179688 468.699219 338.855469 467.597656 C 338.53125 466.496094 338.261719 465.382812 338.046875 464.253906 C 337.828125 463.128906 337.667969 461.992188 337.566406 460.851562 C 337.460938 459.707031 337.410156 458.5625 337.417969 457.417969 C 337.425781 456.269531 337.488281 455.125 337.605469 453.984375 C 337.722656 452.84375 337.898438 451.710938 338.125 450.585938 C 338.355469 449.460938 338.636719 448.351562 338.976562 447.253906 C 339.3125 446.15625 339.703125 445.078125 340.144531 444.019531 C 340.585938 442.960938 341.078125 441.925781 341.621094 440.914062 C 342.164062 439.90625 342.757812 438.921875 343.394531 437.96875 C 344.035156 437.015625 344.71875 436.097656 345.445312 435.210938 C 346.175781 434.324219 346.945312 433.476562 347.757812 432.664062 C 348.566406 431.851562 349.417969 431.082031 350.300781 430.355469 C 351.1875 429.625 352.109375 428.941406 353.0625 428.300781 C 354.015625 427.664062 354.996094 427.074219 356.007812 426.53125 C 357.019531 425.984375 358.050781 425.492188 359.109375 425.050781 C 360.167969 424.609375 361.246094 424.21875 362.34375 423.882812 C 363.441406 423.542969 364.550781 423.261719 365.675781 423.03125 C 366.800781 422.804688 367.933594 422.628906 369.074219 422.511719 C 370.214844 422.390625 371.359375 422.328125 372.507812 422.324219 C 373.65625 422.316406 374.800781 422.363281 375.941406 422.46875 C 377.085938 422.574219 378.21875 422.734375 379.347656 422.949219 C 380.472656 423.164062 381.585938 423.433594 382.6875 423.757812 C 383.789062 424.082031 384.871094 424.457031 385.933594 424.886719 C 387 425.316406 388.039062 425.796875 389.058594 426.328125 C 390.074219 426.859375 391.0625 427.4375 392.023438 428.066406 C 392.984375 428.691406 393.914062 429.367188 394.808594 430.082031 C 395.703125 430.800781 396.5625 431.5625 397.382812 432.363281 L 405.226562 440.207031 L 413.0625 432.367188 C 413.875 431.535156 414.726562 430.742188 415.621094 429.996094 C 416.511719 429.246094 417.441406 428.542969 418.402344 427.882812 C 419.363281 427.226562 420.355469 426.617188 421.378906 426.058594 C 422.398438 425.5 423.445312 424.992188 424.519531 424.535156 C 425.589844 424.082031 426.683594 423.679688 427.796875 423.332031 C 428.90625 422.984375 430.035156 422.691406 431.175781 422.457031 C 432.316406 422.21875 433.464844 422.042969 434.625 421.917969 C 435.785156 421.796875 436.945312 421.734375 438.109375 421.726562 C 439.277344 421.71875 440.4375 421.769531 441.597656 421.875 C 442.757812 421.984375 443.910156 422.148438 445.054688 422.371094 C 446.199219 422.59375 447.328125 422.871094 448.445312 423.207031 C 449.5625 423.539062 450.65625 423.929688 451.734375 424.371094 C 452.8125 424.8125 453.867188 425.308594 454.894531 425.855469 C 455.925781 426.402344 456.921875 426.996094 457.894531 427.644531 C 458.863281 428.289062 459.796875 428.980469 460.699219 429.71875 C 461.601562 430.457031 462.464844 431.238281 463.289062 432.0625 C 464.113281 432.886719 464.894531 433.75 465.632812 434.652344 C 466.371094 435.550781 467.0625 436.488281 467.707031 437.457031 C 468.355469 438.425781 468.949219 439.425781 469.496094 440.453125 C 470.042969 441.484375 470.539062 442.535156 470.980469 443.613281 C 471.425781 444.691406 471.8125 445.789062 472.148438 446.90625 C 472.480469 448.023438 472.757812 449.152344 472.980469 450.296875 C 473.203125 451.4375 473.367188 452.589844 473.476562 453.75 C 473.585938 454.910156 473.636719 456.074219 473.628906 457.238281 C 473.621094 458.402344 473.558594 459.566406 473.433594 460.726562 C 473.3125 461.882812 473.132812 463.035156 472.898438 464.175781 C 472.664062 465.316406 472.371094 466.441406 472.023438 467.554688 C 471.675781 468.667969 471.273438 469.757812 470.820312 470.832031 C 470.363281 471.902344 469.855469 472.949219 469.296875 473.972656 C 468.738281 474.996094 468.128906 475.988281 467.472656 476.949219 C 466.816406 477.910156 466.113281 478.835938 465.363281 479.730469 C 464.613281 480.621094 463.824219 481.476562 462.988281 482.289062 Z M 462.988281 482.289062 " fill-opacity="1" fill-rule="nonzero"/><path fill="#8dc63f" d="M 473.738281 311.132812 C 473.738281 312.253906 473.710938 313.375 473.65625 314.492188 C 473.601562 315.613281 473.519531 316.730469 473.410156 317.847656 C 473.300781 318.964844 473.164062 320.074219 472.996094 321.183594 C 472.832031 322.292969 472.640625 323.398438 472.421875 324.5 C 472.203125 325.597656 471.957031 326.691406 471.6875 327.78125 C 471.414062 328.867188 471.117188 329.949219 470.789062 331.019531 C 470.464844 332.09375 470.113281 333.15625 469.734375 334.214844 C 469.359375 335.269531 468.953125 336.316406 468.523438 337.351562 C 468.097656 338.386719 467.640625 339.414062 467.164062 340.425781 C 466.683594 341.441406 466.179688 342.441406 465.652344 343.429688 C 465.121094 344.417969 464.570312 345.394531 463.992188 346.355469 C 463.417969 347.316406 462.816406 348.265625 462.195312 349.195312 C 461.570312 350.128906 460.925781 351.046875 460.257812 351.945312 C 459.589844 352.847656 458.902344 353.730469 458.191406 354.597656 C 457.480469 355.464844 456.746094 356.3125 455.992188 357.144531 C 455.242188 357.976562 454.46875 358.789062 453.675781 359.582031 C 452.882812 360.375 452.070312 361.144531 451.238281 361.898438 C 450.410156 362.652344 449.558594 363.386719 448.695312 364.097656 C 447.828125 364.808594 446.941406 365.496094 446.042969 366.164062 C 445.140625 366.832031 444.226562 367.480469 443.292969 368.101562 C 442.359375 368.726562 441.414062 369.324219 440.453125 369.902344 C 439.492188 370.476562 438.515625 371.03125 437.527344 371.558594 C 436.539062 372.085938 435.535156 372.589844 434.523438 373.070312 C 433.507812 373.550781 432.484375 374.003906 431.449219 374.433594 C 430.414062 374.863281 429.367188 375.265625 428.3125 375.644531 C 427.253906 376.023438 426.191406 376.375 425.117188 376.699219 C 424.042969 377.027344 422.964844 377.324219 421.875 377.597656 C 420.789062 377.871094 419.695312 378.113281 418.59375 378.335938 C 417.496094 378.554688 416.390625 378.746094 415.28125 378.910156 C 414.171875 379.074219 413.0625 379.210938 411.945312 379.320312 C 410.828125 379.429688 409.710938 379.511719 408.589844 379.570312 C 407.472656 379.625 406.351562 379.652344 405.230469 379.652344 C 404.109375 379.652344 402.988281 379.625 401.867188 379.570312 C 400.746094 379.515625 399.628906 379.433594 398.511719 379.320312 C 397.398438 379.210938 396.285156 379.074219 395.175781 378.910156 C 394.066406 378.746094 392.960938 378.554688 391.863281 378.335938 C 390.761719 378.117188 389.667969 377.871094 388.582031 377.597656 C 387.492188 377.328125 386.414062 377.027344 385.339844 376.703125 C 384.265625 376.375 383.203125 376.023438 382.148438 375.648438 C 381.089844 375.269531 380.046875 374.867188 379.007812 374.4375 C 377.972656 374.007812 376.949219 373.554688 375.933594 373.074219 C 374.921875 372.59375 373.917969 372.089844 372.929688 371.5625 C 371.941406 371.035156 370.964844 370.480469 370.003906 369.90625 C 369.042969 369.328125 368.097656 368.730469 367.164062 368.105469 C 366.230469 367.484375 365.316406 366.839844 364.414062 366.171875 C 363.511719 365.503906 362.628906 364.8125 361.761719 364.101562 C 360.894531 363.390625 360.046875 362.65625 359.214844 361.90625 C 358.386719 361.152344 357.574219 360.378906 356.78125 359.585938 C 355.988281 358.792969 355.214844 357.980469 354.460938 357.152344 C 353.707031 356.320312 352.976562 355.472656 352.265625 354.605469 C 351.554688 353.738281 350.863281 352.855469 350.195312 351.953125 C 349.527344 351.054688 348.882812 350.136719 348.257812 349.203125 C 347.636719 348.273438 347.035156 347.324219 346.460938 346.363281 C 345.882812 345.402344 345.332031 344.425781 344.800781 343.4375 C 344.273438 342.449219 343.769531 341.445312 343.289062 340.433594 C 342.8125 339.421875 342.355469 338.394531 341.925781 337.359375 C 341.5 336.324219 341.09375 335.277344 340.71875 334.222656 C 340.339844 333.167969 339.988281 332.101562 339.664062 331.027344 C 339.335938 329.957031 339.039062 328.875 338.765625 327.789062 C 338.492188 326.699219 338.246094 325.605469 338.027344 324.507812 C 337.808594 323.40625 337.617188 322.300781 337.453125 321.191406 C 337.289062 320.085938 337.152344 318.972656 337.042969 317.855469 C 336.929688 316.738281 336.847656 315.621094 336.792969 314.5 C 336.738281 313.382812 336.710938 312.261719 336.710938 311.140625 C 336.710938 310.019531 336.738281 308.898438 336.792969 307.777344 C 336.847656 306.65625 336.929688 305.539062 337.042969 304.425781 C 337.152344 303.308594 337.289062 302.195312 337.453125 301.085938 C 337.617188 299.976562 337.808594 298.875 338.027344 297.773438 C 338.246094 296.671875 338.492188 295.578125 338.765625 294.492188 C 339.035156 293.40625 339.335938 292.324219 339.660156 291.25 C 339.988281 290.179688 340.339844 289.113281 340.714844 288.058594 C 341.09375 287.003906 341.496094 285.957031 341.925781 284.921875 C 342.355469 283.882812 342.808594 282.859375 343.289062 281.847656 C 343.769531 280.832031 344.273438 279.832031 344.800781 278.84375 C 345.328125 277.851562 345.882812 276.878906 346.457031 275.917969 C 347.035156 274.953125 347.632812 274.007812 348.257812 273.074219 C 348.878906 272.140625 349.527344 271.226562 350.195312 270.324219 C 350.863281 269.425781 351.550781 268.542969 352.261719 267.675781 C 352.972656 266.808594 353.707031 265.957031 354.457031 265.128906 C 355.210938 264.296875 355.984375 263.484375 356.777344 262.691406 C 357.570312 261.898438 358.382812 261.125 359.214844 260.375 C 360.042969 259.621094 360.894531 258.886719 361.757812 258.175781 C 362.625 257.464844 363.511719 256.777344 364.410156 256.109375 C 365.3125 255.441406 366.226562 254.792969 367.160156 254.171875 C 368.09375 253.546875 369.039062 252.949219 370 252.371094 C 370.964844 251.796875 371.9375 251.242188 372.925781 250.714844 C 373.917969 250.1875 374.917969 249.683594 375.929688 249.203125 C 376.945312 248.722656 377.96875 248.269531 379.003906 247.839844 C 380.042969 247.410156 381.085938 247.007812 382.144531 246.628906 C 383.199219 246.25 384.261719 245.898438 385.335938 245.574219 C 386.410156 245.25 387.488281 244.949219 388.578125 244.675781 C 389.664062 244.40625 390.757812 244.160156 391.859375 243.941406 C 392.957031 243.722656 394.0625 243.53125 395.171875 243.367188 C 396.28125 243.203125 397.394531 243.0625 398.507812 242.953125 C 399.625 242.84375 400.742188 242.761719 401.863281 242.707031 C 402.984375 242.652344 404.105469 242.625 405.226562 242.625 C 406.34375 242.625 407.464844 242.65625 408.585938 242.710938 C 409.703125 242.765625 410.820312 242.851562 411.9375 242.960938 C 413.050781 243.074219 414.164062 243.210938 415.273438 243.375 C 416.382812 243.542969 417.484375 243.734375 418.585938 243.953125 C 419.683594 244.175781 420.777344 244.421875 421.863281 244.695312 C 422.949219 244.96875 424.03125 245.265625 425.101562 245.59375 C 426.175781 245.917969 427.238281 246.269531 428.292969 246.648438 C 429.347656 247.027344 430.394531 247.433594 431.429688 247.863281 C 432.464844 248.289062 433.488281 248.746094 434.5 249.226562 C 435.515625 249.703125 436.515625 250.210938 437.503906 250.738281 C 438.492188 251.265625 439.464844 251.820312 440.425781 252.394531 C 441.390625 252.972656 442.335938 253.574219 443.265625 254.195312 C 444.199219 254.816406 445.113281 255.464844 446.015625 256.132812 C 446.914062 256.800781 447.796875 257.488281 448.664062 258.199219 C 449.53125 258.910156 450.378906 259.644531 451.210938 260.394531 C 452.039062 261.148438 452.851562 261.921875 453.644531 262.714844 C 454.4375 263.507812 455.210938 264.316406 455.960938 265.148438 C 456.714844 265.976562 457.449219 266.828125 458.160156 267.691406 C 458.871094 268.558594 459.558594 269.441406 460.226562 270.34375 C 460.894531 271.242188 461.539062 272.160156 462.164062 273.089844 C 462.785156 274.023438 463.386719 274.96875 463.964844 275.929688 C 464.539062 276.890625 465.09375 277.863281 465.621094 278.851562 C 466.152344 279.839844 466.65625 280.84375 467.132812 281.855469 C 467.613281 282.867188 468.070312 283.890625 468.5 284.925781 C 468.929688 285.960938 469.332031 287.007812 469.710938 288.0625 C 470.089844 289.117188 470.441406 290.179688 470.769531 291.253906 C 471.09375 292.324219 471.394531 293.40625 471.667969 294.492188 C 471.941406 295.578125 472.1875 296.671875 472.40625 297.773438 C 472.625 298.871094 472.820312 299.976562 472.984375 301.082031 C 473.152344 302.191406 473.289062 303.304688 473.398438 304.417969 C 473.511719 305.535156 473.59375 306.652344 473.652344 307.769531 C 473.707031 308.890625 473.738281 310.011719 473.738281 311.132812 Z M 473.738281 311.132812 " fill-opacity="1" fill-rule="nonzero"/><path fill="#8dc63f" d="M 455.53125 457.324219 C 455.535156 459.648438 455.085938 461.882812 454.195312 464.027344 C 453.300781 466.171875 452.027344 468.0625 450.375 469.695312 L 405.226562 514.878906 L 360.042969 469.703125 C 359.636719 469.296875 359.25 468.875 358.886719 468.429688 C 358.523438 467.988281 358.183594 467.527344 357.863281 467.050781 C 357.546875 466.574219 357.25 466.085938 356.980469 465.578125 C 356.710938 465.074219 356.464844 464.554688 356.246094 464.027344 C 356.027344 463.496094 355.832031 462.957031 355.667969 462.410156 C 355.5 461.863281 355.363281 461.304688 355.25 460.746094 C 355.136719 460.183594 355.054688 459.617188 354.996094 459.046875 C 354.941406 458.476562 354.914062 457.902344 354.914062 457.332031 C 354.914062 456.757812 354.941406 456.1875 354.996094 455.617188 C 355.050781 455.046875 355.136719 454.480469 355.246094 453.917969 C 355.359375 453.355469 355.5 452.800781 355.664062 452.25 C 355.832031 451.703125 356.023438 451.164062 356.242188 450.632812 C 356.460938 450.105469 356.707031 449.585938 356.976562 449.082031 C 357.246094 448.574219 357.539062 448.085938 357.859375 447.609375 C 358.175781 447.132812 358.519531 446.671875 358.882812 446.226562 C 359.246094 445.785156 359.628906 445.359375 360.035156 444.957031 C 360.441406 444.550781 360.863281 444.164062 361.308594 443.800781 C 361.75 443.4375 362.210938 443.097656 362.6875 442.777344 C 363.164062 442.460938 363.652344 442.164062 364.160156 441.894531 C 364.664062 441.625 365.179688 441.378906 365.710938 441.160156 C 366.242188 440.941406 366.777344 440.75 367.328125 440.582031 C 367.875 440.414062 368.429688 440.277344 368.992188 440.164062 C 369.554688 440.050781 370.121094 439.96875 370.691406 439.910156 C 371.261719 439.855469 371.835938 439.828125 372.40625 439.828125 C 372.980469 439.828125 373.550781 439.855469 374.121094 439.910156 C 374.691406 439.964844 375.257812 440.050781 375.820312 440.164062 C 376.382812 440.273438 376.9375 440.414062 377.488281 440.578125 C 378.035156 440.746094 378.574219 440.9375 379.105469 441.15625 C 379.632812 441.375 380.152344 441.621094 380.65625 441.890625 C 381.164062 442.160156 381.652344 442.457031 382.128906 442.773438 C 382.605469 443.089844 383.066406 443.433594 383.507812 443.796875 C 383.953125 444.160156 384.378906 444.542969 384.78125 444.949219 L 398.929688 459.128906 C 399.300781 459.5 399.707031 459.835938 400.140625 460.136719 C 400.574219 460.4375 401.03125 460.695312 401.507812 460.917969 C 401.988281 461.136719 402.484375 461.3125 402.996094 461.445312 C 403.507812 461.574219 404.023438 461.660156 404.550781 461.703125 C 405.078125 461.742188 405.601562 461.734375 406.128906 461.679688 C 406.652344 461.628906 407.167969 461.527344 407.675781 461.382812 C 408.183594 461.238281 408.671875 461.050781 409.148438 460.820312 C 409.621094 460.585938 410.070312 460.316406 410.496094 460.003906 C 410.863281 459.734375 411.207031 459.441406 411.527344 459.121094 L 411.84375 458.792969 L 425.660156 444.976562 C 426.066406 444.570312 426.492188 444.1875 426.933594 443.824219 C 427.378906 443.460938 427.835938 443.121094 428.3125 442.800781 C 428.792969 442.484375 429.28125 442.191406 429.789062 441.921875 C 430.292969 441.652344 430.808594 441.40625 431.339844 441.1875 C 431.871094 440.96875 432.410156 440.777344 432.957031 440.609375 C 433.503906 440.445312 434.058594 440.304688 434.621094 440.195312 C 435.183594 440.082031 435.75 440 436.320312 439.945312 C 436.890625 439.886719 437.460938 439.859375 438.035156 439.859375 C 438.609375 439.859375 439.179688 439.886719 439.75 439.945312 C 440.320312 440 440.886719 440.082031 441.449219 440.195312 C 442.007812 440.304688 442.566406 440.445312 443.113281 440.609375 C 443.660156 440.777344 444.199219 440.96875 444.730469 441.1875 C 445.257812 441.40625 445.777344 441.652344 446.28125 441.921875 C 446.789062 442.191406 447.277344 442.484375 447.753906 442.800781 C 448.230469 443.121094 448.691406 443.460938 449.136719 443.824219 C 449.578125 444.1875 450.003906 444.570312 450.410156 444.976562 C 452.054688 446.609375 453.320312 448.496094 454.207031 450.636719 C 455.09375 452.777344 455.539062 455.003906 455.53125 457.324219 Z M 455.53125 457.324219 " fill-opacity="1" fill-rule="nonzero"/><path fill="#8dc63f" d="M 405.226562 212.191406 C 404.640625 212.191406 404.0625 212.136719 403.488281 212.019531 C 402.914062 211.90625 402.359375 211.738281 401.816406 211.515625 C 401.277344 211.289062 400.765625 211.015625 400.277344 210.691406 C 399.792969 210.367188 399.34375 209.996094 398.929688 209.582031 C 398.515625 209.167969 398.148438 208.71875 397.824219 208.234375 C 397.496094 207.746094 397.222656 207.234375 397 206.695312 C 396.777344 206.152344 396.609375 205.597656 396.496094 205.023438 C 396.382812 204.449219 396.324219 203.871094 396.324219 203.285156 L 396.324219 143.117188 C 396.324219 142.535156 396.382812 141.957031 396.496094 141.382812 C 396.609375 140.808594 396.777344 140.253906 397.003906 139.710938 C 397.226562 139.171875 397.5 138.660156 397.824219 138.171875 C 398.148438 137.6875 398.519531 137.238281 398.929688 136.824219 C 399.34375 136.410156 399.792969 136.042969 400.28125 135.71875 C 400.765625 135.394531 401.277344 135.121094 401.820312 134.894531 C 402.359375 134.671875 402.914062 134.503906 403.488281 134.390625 C 404.0625 134.273438 404.640625 134.21875 405.226562 134.21875 C 405.808594 134.21875 406.386719 134.273438 406.960938 134.390625 C 407.535156 134.503906 408.089844 134.671875 408.628906 134.894531 C 409.171875 135.121094 409.683594 135.394531 410.167969 135.71875 C 410.65625 136.042969 411.105469 136.410156 411.519531 136.824219 C 411.929688 137.238281 412.300781 137.6875 412.625 138.171875 C 412.949219 138.660156 413.222656 139.171875 413.449219 139.710938 C 413.671875 140.253906 413.839844 140.808594 413.953125 141.382812 C 414.066406 141.957031 414.125 142.535156 414.125 143.117188 L 414.125 203.285156 C 414.125 203.871094 414.070312 204.449219 413.953125 205.023438 C 413.839844 205.597656 413.671875 206.152344 413.449219 206.695312 C 413.226562 207.234375 412.953125 207.746094 412.628906 208.234375 C 412.300781 208.71875 411.933594 209.167969 411.519531 209.582031 C 411.105469 209.996094 410.65625 210.367188 410.171875 210.691406 C 409.683594 211.015625 409.171875 211.289062 408.632812 211.515625 C 408.09375 211.738281 407.535156 211.90625 406.960938 212.019531 C 406.386719 212.136719 405.808594 212.191406 405.226562 212.191406 Z M 405.226562 212.191406 " fill-opacity="1" fill-rule="nonzero"/><path fill="#8dc63f" d="M 446.21875 212.191406 C 445.40625 212.191406 444.605469 212.082031 443.820312 211.863281 C 443.035156 211.644531 442.292969 211.320312 441.597656 210.898438 C 440.902344 210.472656 440.273438 209.964844 439.71875 209.371094 C 439.164062 208.773438 438.695312 208.113281 438.320312 207.390625 C 437.945312 206.667969 437.675781 205.90625 437.507812 205.109375 C 437.34375 204.3125 437.285156 203.507812 437.339844 202.691406 C 437.394531 201.878906 437.558594 201.089844 437.832031 200.320312 C 438.105469 199.550781 438.472656 198.835938 438.945312 198.167969 L 460.074219 168.058594 C 460.410156 167.582031 460.789062 167.140625 461.214844 166.734375 C 461.636719 166.332031 462.09375 165.972656 462.589844 165.660156 C 463.082031 165.347656 463.601562 165.085938 464.144531 164.875 C 464.691406 164.664062 465.253906 164.507812 465.828125 164.40625 C 466.402344 164.304688 466.984375 164.261719 467.566406 164.277344 C 468.152344 164.289062 468.730469 164.359375 469.300781 164.488281 C 469.871094 164.613281 470.425781 164.796875 470.957031 165.03125 C 471.492188 165.269531 472 165.554688 472.476562 165.890625 C 472.957031 166.226562 473.398438 166.605469 473.800781 167.027344 C 474.207031 167.453125 474.5625 167.910156 474.878906 168.402344 C 475.191406 168.898438 475.453125 169.417969 475.664062 169.960938 C 475.875 170.507812 476.03125 171.066406 476.132812 171.644531 C 476.230469 172.21875 476.277344 172.800781 476.261719 173.382812 C 476.25 173.96875 476.179688 174.546875 476.050781 175.117188 C 475.921875 175.6875 475.742188 176.238281 475.503906 176.773438 C 475.269531 177.308594 474.984375 177.816406 474.648438 178.292969 L 453.507812 208.378906 C 453.097656 208.964844 452.625 209.496094 452.089844 209.96875 C 451.550781 210.441406 450.964844 210.847656 450.332031 211.179688 C 449.695312 211.511719 449.03125 211.761719 448.335938 211.933594 C 447.640625 212.105469 446.9375 212.191406 446.21875 212.191406 Z M 446.21875 212.191406 " fill-opacity="1" fill-rule="nonzero"/><path fill="#8dc63f" d="M 364.230469 212.191406 C 363.515625 212.191406 362.808594 212.109375 362.117188 211.9375 C 361.421875 211.769531 360.757812 211.519531 360.121094 211.191406 C 359.488281 210.859375 358.902344 210.460938 358.363281 209.988281 C 357.824219 209.515625 357.351562 208.988281 356.941406 208.402344 L 335.800781 178.320312 C 335.464844 177.839844 335.179688 177.335938 334.941406 176.800781 C 334.707031 176.265625 334.523438 175.710938 334.394531 175.140625 C 334.269531 174.570312 334.195312 173.992188 334.183594 173.40625 C 334.167969 172.824219 334.210938 172.242188 334.3125 171.667969 C 334.414062 171.089844 334.566406 170.527344 334.777344 169.984375 C 334.988281 169.4375 335.25 168.917969 335.5625 168.425781 C 335.875 167.929688 336.234375 167.472656 336.636719 167.046875 C 337.042969 166.625 337.484375 166.242188 337.960938 165.90625 C 338.4375 165.570312 338.945312 165.285156 339.480469 165.046875 C 340.015625 164.808594 340.566406 164.625 341.136719 164.5 C 341.710938 164.371094 342.285156 164.300781 342.871094 164.285156 C 343.457031 164.269531 344.035156 164.3125 344.613281 164.414062 C 345.1875 164.511719 345.75 164.667969 346.296875 164.878906 C 346.84375 165.089844 347.363281 165.351562 347.855469 165.664062 C 348.351562 165.976562 348.808594 166.335938 349.234375 166.738281 C 349.65625 167.140625 350.039062 167.582031 350.375 168.058594 L 371.507812 198.144531 C 371.976562 198.808594 372.347656 199.527344 372.617188 200.296875 C 372.890625 201.0625 373.054688 201.855469 373.109375 202.667969 C 373.164062 203.480469 373.109375 204.285156 372.941406 205.082031 C 372.773438 205.882812 372.503906 206.640625 372.128906 207.367188 C 371.753906 208.089844 371.289062 208.75 370.730469 209.34375 C 370.175781 209.9375 369.546875 210.449219 368.851562 210.871094 C 368.15625 211.296875 367.414062 211.617188 366.628906 211.835938 C 365.84375 212.054688 365.046875 212.167969 364.230469 212.167969 Z M 364.230469 212.191406 " fill-opacity="1" fill-rule="nonzero"/><path fill="#8dc63f" d="M 589.710938 618.382812 C 589.707031 619.277344 589.660156 620.167969 589.570312 621.058594 C 589.476562 621.945312 589.34375 622.828125 589.167969 623.707031 C 588.988281 624.582031 588.769531 625.449219 588.507812 626.300781 C 588.246094 627.15625 587.941406 627.996094 587.597656 628.824219 C 587.253906 629.648438 586.871094 630.453125 586.449219 631.242188 C 586.027344 632.03125 585.566406 632.796875 585.070312 633.539062 C 584.570312 634.28125 584.039062 634.996094 583.472656 635.6875 C 582.902344 636.378906 582.304688 637.039062 581.671875 637.671875 C 581.039062 638.304688 580.378906 638.90625 579.6875 639.472656 C 578.996094 640.039062 578.277344 640.570312 577.535156 641.070312 C 576.792969 641.566406 576.027344 642.027344 575.238281 642.449219 C 574.453125 642.871094 573.644531 643.253906 572.820312 643.597656 C 571.996094 643.941406 571.15625 644.246094 570.300781 644.507812 C 569.445312 644.769531 568.578125 644.988281 567.703125 645.164062 C 566.828125 645.339844 565.941406 645.476562 565.054688 645.566406 C 564.164062 645.65625 563.273438 645.703125 562.378906 645.707031 L 431.816406 645.707031 C 432.554688 644.738281 433.253906 643.742188 433.914062 642.714844 C 434.574219 641.691406 435.191406 640.640625 435.761719 639.5625 C 436.335938 638.488281 436.867188 637.390625 437.351562 636.269531 C 437.835938 635.152344 438.273438 634.015625 438.664062 632.859375 C 439.058594 631.707031 439.402344 630.539062 439.699219 629.355469 C 439.996094 628.171875 440.246094 626.980469 440.445312 625.777344 C 440.648438 624.574219 440.796875 623.367188 440.898438 622.152344 C 441 620.9375 441.054688 619.71875 441.058594 618.5 C 441.0625 617.28125 441.015625 616.0625 440.917969 614.847656 C 440.824219 613.632812 440.679688 612.421875 440.484375 611.21875 C 440.289062 610.015625 440.046875 608.820312 439.757812 607.636719 C 439.464844 606.453125 439.125 605.28125 438.742188 604.125 C 438.355469 602.96875 437.921875 601.832031 437.445312 600.710938 C 436.964844 599.585938 436.441406 598.488281 435.875 597.410156 C 435.304688 596.328125 434.695312 595.277344 434.039062 594.246094 C 433.386719 593.21875 432.691406 592.214844 431.957031 591.242188 C 433 591.125 434.042969 591.066406 435.089844 591.0625 L 562.378906 591.0625 C 563.273438 591.0625 564.164062 591.109375 565.054688 591.195312 C 565.945312 591.285156 566.832031 591.417969 567.707031 591.59375 C 568.585938 591.765625 569.453125 591.984375 570.308594 592.246094 C 571.164062 592.503906 572.003906 592.804688 572.832031 593.148438 C 573.65625 593.492188 574.464844 593.875 575.253906 594.296875 C 576.042969 594.71875 576.808594 595.175781 577.554688 595.675781 C 578.296875 596.171875 579.015625 596.703125 579.707031 597.269531 C 580.398438 597.839844 581.058594 598.4375 581.691406 599.070312 C 582.324219 599.703125 582.925781 600.367188 583.492188 601.058594 C 584.0625 601.75 584.59375 602.464844 585.09375 603.210938 C 585.589844 603.953125 586.050781 604.71875 586.472656 605.507812 C 586.894531 606.296875 587.277344 607.105469 587.621094 607.929688 C 587.960938 608.757812 588.265625 609.597656 588.523438 610.453125 C 588.785156 611.308594 589.003906 612.175781 589.179688 613.054688 C 589.355469 613.929688 589.488281 614.8125 589.574219 615.703125 C 589.664062 616.59375 589.710938 617.488281 589.710938 618.382812 Z M 589.710938 618.382812 " fill-opacity="1" fill-rule="nonzero"/><g clip-path="url(#31360f4ec0)"><path fill="#8dc63f" d="M 679.125 667.328125 C 679.125 667.914062 679.066406 668.492188 678.953125 669.066406 C 678.839844 669.640625 678.671875 670.195312 678.445312 670.734375 C 678.222656 671.273438 677.949219 671.789062 677.625 672.273438 C 677.300781 672.761719 676.929688 673.210938 676.515625 673.621094 C 676.105469 674.035156 675.65625 674.40625 675.167969 674.730469 C 674.683594 675.054688 674.167969 675.328125 673.628906 675.550781 C 673.089844 675.777344 672.535156 675.945312 671.960938 676.058594 C 671.386719 676.171875 670.808594 676.230469 670.222656 676.230469 L 140.226562 676.230469 C 139.640625 676.230469 139.0625 676.171875 138.488281 676.058594 C 137.917969 675.945312 137.359375 675.777344 136.820312 675.550781 C 136.28125 675.328125 135.765625 675.054688 135.28125 674.730469 C 134.796875 674.40625 134.34375 674.035156 133.933594 673.621094 C 133.519531 673.210938 133.148438 672.761719 132.824219 672.273438 C 132.5 671.789062 132.226562 671.273438 132.003906 670.734375 C 131.777344 670.195312 131.609375 669.640625 131.496094 669.066406 C 131.382812 668.492188 131.324219 667.914062 131.324219 667.328125 C 131.324219 666.746094 131.382812 666.167969 131.496094 665.59375 C 131.609375 665.019531 131.777344 664.464844 132.003906 663.921875 C 132.226562 663.382812 132.5 662.871094 132.824219 662.386719 C 133.148438 661.898438 133.519531 661.449219 133.933594 661.035156 C 134.34375 660.621094 134.796875 660.253906 135.28125 659.929688 C 135.765625 659.605469 136.28125 659.332031 136.820312 659.105469 C 137.359375 658.882812 137.917969 658.714844 138.488281 658.601562 C 139.0625 658.488281 139.640625 658.429688 140.226562 658.429688 L 670.222656 658.429688 C 670.808594 658.429688 671.386719 658.488281 671.960938 658.601562 C 672.535156 658.714844 673.089844 658.882812 673.628906 659.105469 C 674.167969 659.332031 674.683594 659.605469 675.167969 659.929688 C 675.65625 660.253906 676.105469 660.621094 676.515625 661.035156 C 676.929688 661.449219 677.300781 661.898438 677.625 662.386719 C 677.949219 662.871094 678.222656 663.382812 678.445312 663.921875 C 678.671875 664.464844 678.839844 665.019531 678.953125 665.59375 C 679.066406 666.167969 679.125 666.746094 679.125 667.328125 Z M 679.125 667.328125 " fill-opacity="1" fill-rule="nonzero"/></g></svg>