<svg xmlns="http://www.w3.org/2000/svg" xmlns:xlink="http://www.w3.org/1999/xlink" width="1080" zoomAndPan="magnify" viewBox="0 0 810 809.999993" height="1080" preserveAspectRatio="xMidYMid meet" version="1.0"><defs><clipPath id="d648b03517"><path d="M 281 127 L 688.015625 127 L 688.015625 685 L 281 685 Z M 281 127 " clip-rule="nonzero"/></clipPath></defs><rect x="-81" width="972" fill="#ffffff" y="-80.999999" height="971.999992" fill-opacity="1"/><rect x="-81" width="972" fill="#ffffff" y="-80.999999" height="971.999992" fill-opacity="1"/><g clip-path="url(#d648b03517)"><path fill="#8dc63f" d="M 383.882812 136.457031 C 409.765625 126.828125 438.273438 124.78125 465.386719 129.78125 C 489.972656 134.347656 513.847656 144.859375 532.347656 161.910156 C 546.09375 174.65625 556.378906 190.707031 564.21875 207.636719 C 577.726562 202.167969 592.113281 197.9375 606.804688 198.234375 C 617.785156 198.988281 628.664062 202.308594 637.945312 208.289062 C 648.09375 214.816406 656.21875 224.210938 661.949219 234.777344 C 669.5 248.996094 672.082031 265.386719 671.613281 281.34375 C 671.472656 293.324219 668.914062 305.089844 666.28125 316.730469 C 662.980469 331.351562 659.003906 345.882812 657.402344 360.824219 C 656.792969 368.828125 657.085938 377.171875 660.421875 384.605469 C 662.792969 390.34375 667.453125 394.988281 673.019531 397.664062 C 675.371094 398.84375 678.070312 400.164062 678.964844 402.851562 C 679.667969 404.484375 678.609375 406.25 677.375 407.296875 C 675.277344 408.980469 672.585938 409.605469 670.058594 410.328125 C 656.972656 413.515625 643.085938 413.140625 630.132812 409.511719 C 618.332031 406.136719 607.421875 399.613281 599.078125 390.578125 C 589.96875 380.6875 583.777344 367.988281 582.140625 354.59375 C 581.011719 344.027344 582.617188 333.367188 585.574219 323.214844 C 588.789062 311.332031 593.304688 299.496094 593.128906 287.015625 C 592.714844 274.398438 584.386719 263.207031 573.726562 257.027344 C 576.78125 280.015625 571.753906 303.378906 562.648438 324.484375 C 556.449219 338.679688 548.835938 352.292969 539.609375 364.75 C 538.148438 366.839844 536.335938 368.675781 535.03125 370.871094 C 538.402344 382.695312 546.515625 392.738281 556.292969 399.980469 C 565.15625 406.578125 575.695312 410.1875 585.679688 414.679688 C 596.65625 419.78125 607.375 425.601562 616.976562 433.03125 C 632.066406 444.328125 643.847656 459.5 652.945312 475.902344 C 658.925781 486.621094 664.320312 497.761719 667.625 509.621094 C 672.191406 525.585938 675.015625 541.988281 677.644531 558.375 C 683.191406 595.984375 687.1875 633.871094 688.226562 671.875 C 688.109375 674.921875 688.28125 678.160156 686.988281 680.996094 C 685.574219 683.878906 682.011719 684.296875 679.164062 684.339844 C 642.492188 683.851562 605.820312 684.113281 569.140625 684.0625 C 554.929688 684.078125 540.71875 684.035156 526.507812 684.269531 C 518.847656 684.175781 511.164062 684.625 503.519531 684.019531 C 504.550781 680.753906 506.640625 677.984375 508.171875 674.957031 C 516.886719 658.882812 524.953125 642.433594 531.914062 625.511719 C 539.816406 606.023438 546.082031 585.679688 548.375 564.714844 C 548.460938 561.710938 549.15625 557.96875 546.8125 555.625 C 545.320312 554.296875 544.71875 556.570312 544.363281 557.664062 C 541.648438 567.109375 538.085938 576.277344 534.554688 585.445312 C 527.226562 604.453125 518.824219 623.066406 509.144531 641.007812 C 501.390625 655.570312 492.789062 669.71875 483.0625 683.054688 C 482.335938 684.253906 480.988281 684.722656 479.644531 684.609375 C 470.664062 684.632812 461.679688 684.546875 452.695312 684.496094 C 439.167969 684.234375 425.488281 684.210938 412.253906 681.109375 C 407.238281 679.972656 402.210938 677.828125 398.886719 673.757812 C 392.246094 665.789062 388.183594 655.996094 385.308594 646.125 C 385.621094 643.847656 387.789062 642.183594 389.007812 640.28125 C 397.070312 629.582031 403.128906 617.449219 407.453125 604.789062 C 411.074219 593.710938 413.765625 582.128906 413.664062 570.417969 C 413.792969 564.152344 410.128906 558.101562 404.765625 554.949219 C 399.960938 552.074219 394.761719 549.859375 389.40625 548.230469 C 386.515625 547.300781 383.421875 546.953125 380.730469 545.457031 C 386.140625 536.75 392.277344 528.503906 398.121094 520.082031 C 406.820312 507.804688 415.859375 495.765625 425.21875 483.992188 C 431 476.710938 437.09375 469.683594 442.816406 462.367188 C 442.808594 460.359375 442.015625 458.46875 441.339844 456.617188 C 438.777344 450.429688 435.082031 444.742188 430.695312 439.699219 C 428.316406 437.035156 425.53125 434.613281 422.136719 433.367188 C 416.507812 435.175781 411.308594 438.039062 405.996094 440.59375 C 398.375 444.429688 390.527344 447.851562 382.375 450.386719 C 376.84375 452.121094 371.183594 454.152344 365.296875 453.730469 C 360.027344 453.261719 354.609375 453.15625 349.609375 451.234375 C 344.667969 449.273438 340.3125 445.617188 337.921875 440.820312 C 334.832031 434.757812 334.09375 427.910156 333.027344 421.292969 C 332.984375 420.382812 332.039062 420.09375 331.414062 419.6875 C 327.398438 417.570312 324.527344 413.671875 323.128906 409.40625 C 322.363281 407.261719 322.800781 404.945312 322.617188 402.722656 C 316.660156 399.058594 310.195312 394.902344 307.554688 388.078125 C 305.210938 382.371094 306.644531 376.175781 307.207031 370.289062 C 300.90625 370.445312 294.261719 368.683594 289.828125 363.96875 C 283.523438 357.65625 282.332031 347.882812 284.410156 339.519531 C 285.683594 333.957031 289.589844 329.589844 292.09375 324.589844 C 295.964844 317.3125 298.238281 308.867188 296.773438 300.625 C 295.503906 295.070312 292.863281 289.972656 291.164062 284.554688 C 287.207031 272.351562 284.757812 259.1875 287.535156 246.460938 C 282.160156 237.328125 279.867188 226.136719 282.726562 215.789062 C 286.691406 200.976562 295.949219 187.992188 307.257812 177.824219 C 316.53125 169.96875 327.359375 163.792969 339.113281 160.53125 C 339.953125 160.269531 340.804688 159.976562 341.558594 159.488281 C 354.21875 149.46875 368.796875 142.082031 383.882812 136.457031 M 303.519531 265.007812 C 305.652344 277.1875 311.503906 288.351562 313.5625 300.539062 C 315.65625 311.480469 312.460938 322.800781 307.035156 332.316406 C 304.507812 336.601562 300.398438 340.589844 300.667969 345.929688 C 300.503906 349.296875 302.234375 352.507812 304.804688 354.59375 C 309.195312 358.429688 316.269531 356 320.28125 360.46875 C 323.703125 364.296875 322.644531 369.75 322.53125 374.421875 C 322.3125 378.777344 323.179688 383.804688 326.636719 386.773438 C 329.5 387.582031 332.582031 386.792969 335.527344 387.078125 C 338.722656 386.941406 341.753906 390.300781 340.742188 393.46875 C 339.953125 396.785156 337.082031 398.914062 334.652344 401.039062 C 337.664062 404.460938 342.074219 406.171875 345.148438 409.484375 C 350.058594 415.40625 349.703125 423.585938 352.640625 430.382812 C 353.730469 432.980469 356.078125 434.984375 358.882812 435.480469 C 366.875 437.460938 375.054688 435.035156 382.347656 431.765625 C 390.679688 428.253906 398.9375 424.546875 406.976562 420.398438 C 411.621094 418.261719 416.265625 415.667969 421.449219 415.214844 C 425.304688 414.851562 429.117188 416.136719 432.351562 418.1875 C 449.28125 429.246094 460.230469 448.691406 461.339844 468.835938 C 462.019531 477.578125 461.332031 486.34375 461.132812 495.089844 C 461.175781 496.46875 460.585938 498.367188 462.105469 499.1875 C 466.011719 502.152344 471.324219 500.546875 475.320312 498.605469 C 484.988281 493.601562 493.1875 486.308594 501.007812 478.84375 C 509.847656 469.882812 518.1875 460.394531 525.621094 450.222656 C 533.972656 439.101562 541.1875 427.203125 548.539062 415.414062 C 542.84375 412.480469 538.042969 408.105469 533.757812 403.402344 C 525.96875 394.625 520.925781 383.902344 516.550781 373.128906 C 512.234375 372.109375 507.910156 371.0625 503.792969 369.386719 C 494.585938 365.722656 486.507812 359.390625 480.554688 351.484375 C 476.910156 346.710938 473.375 341.742188 471.109375 336.144531 C 473.902344 333.945312 477.472656 333.09375 480.292969 330.925781 C 488.5 325.023438 492.988281 315.28125 494.941406 305.601562 C 496.648438 296.355469 494.785156 286.152344 488.308594 279.070312 C 484.0625 274.171875 477.644531 271.351562 471.175781 271.402344 C 465.519531 271.210938 460.273438 274.015625 455.917969 277.386719 C 449.292969 282.683594 445.382812 290.617188 443.34375 298.714844 C 441.382812 297.585938 439.691406 296.078125 437.847656 294.792969 C 427.050781 287.230469 414.539062 282.664062 402.089844 278.628906 C 391.367188 275.300781 380.714844 271.613281 370.550781 266.800781 C 354.78125 259.507812 339.027344 251.480469 325.917969 239.890625 C 319.371094 234.308594 313.988281 227.484375 309.457031 220.207031 C 301.695312 233.628906 300.609375 250.023438 303.519531 265.007812 Z M 303.519531 265.007812 " fill-opacity="1" fill-rule="nonzero"/></g><path fill="#8dc63f" d="M 364.175781 295.84375 C 367.925781 294.027344 371.539062 298.335938 370.972656 301.902344 C 370.503906 305.660156 367.96875 308.710938 365.089844 310.992188 C 359.453125 315.417969 351.988281 318.066406 344.824219 316.453125 C 339.648438 315.359375 334.25 312.5625 332.035156 307.503906 C 330.363281 303.988281 333.609375 299.410156 337.539062 300.296875 C 342.941406 301.234375 348.539062 302.996094 353.992188 301.253906 C 357.792969 300.28125 360.757812 297.597656 364.175781 295.84375 Z M 364.175781 295.84375 " fill-opacity="1" fill-rule="nonzero"/><path fill="#8dc63f" d="M 125.761719 365.4375 C 121.863281 359.011719 126.855469 349.089844 134.554688 349.011719 C 139.085938 349.382812 143.351562 351.117188 147.585938 352.65625 C 156.042969 356.09375 164.289062 360.035156 172.460938 364.089844 C 173.746094 364.75 175.113281 363.847656 176.402344 363.65625 C 184.023438 361.554688 192 361.78125 199.824219 361.929688 C 203.816406 362.023438 208.070312 363.167969 210.816406 366.242188 C 213.332031 368.707031 214.253906 372.199219 215.199219 375.480469 C 215.46875 376.609375 216.8125 376.671875 217.691406 377.09375 C 233.003906 381.765625 246.617188 390.414062 260.273438 398.519531 C 266.75 401.335938 273.816406 402.425781 280.503906 404.625 C 288.410156 407.246094 296.605469 409.085938 304.175781 412.613281 C 307.398438 414.210938 310.894531 416.03125 312.738281 419.269531 C 314.238281 422.691406 311.515625 426.09375 309.023438 428.1875 C 301.183594 434.542969 290.6875 436.476562 280.832031 436.40625 C 269.945312 436.503906 259.023438 432.179688 251.367188 424.410156 C 247.808594 420.953125 245.0625 416.769531 242.730469 412.410156 C 241.226562 409.347656 237.222656 409.25 234.28125 409.625 C 231.101562 409.878906 228.636719 412.054688 226.34375 414.054688 C 228.316406 419.089844 228.335938 425.171875 225.597656 429.929688 C 223.457031 433.648438 219.496094 435.808594 215.527344 437.070312 C 219.042969 445.394531 220.148438 455.082031 216.726562 463.625 C 215.105469 468.320312 212.125 472.339844 210.042969 476.796875 C 207.4375 483.027344 210.65625 489.488281 212.21875 495.539062 C 215.726562 505.863281 218.574219 516.460938 223.238281 526.359375 C 224.28125 528.53125 224.394531 531.066406 223.863281 533.398438 C 222.671875 537.558594 217.914062 540.230469 213.742188 538.945312 C 210.78125 537.792969 208.660156 535.199219 207.21875 532.46875 C 202.183594 521.878906 199.148438 510.507812 195.5625 499.382812 C 194.101562 494.28125 192.539062 489.132812 192.246094 483.800781 C 192.167969 480.539062 192.84375 477.300781 193.816406 474.199219 C 195.628906 468.339844 199.457031 463.363281 201.335938 457.53125 C 202.53125 453.925781 201.472656 450.132812 200.960938 446.503906 C 199.96875 442.3125 198.722656 437.257812 194.371094 435.347656 C 187.859375 432.667969 180.496094 433.871094 173.882812 431.609375 C 171.007812 430.738281 168.316406 427.300781 170.367188 424.425781 C 173.4375 420.816406 178.546875 420.304688 182.921875 419.511719 C 191.515625 417.914062 200.5 420.453125 207.496094 425.554688 C 208.871094 423.574219 211.371094 421.3125 210.25 418.679688 C 206.195312 414.390625 200.5 412.097656 194.980469 410.335938 C 190.628906 408.914062 185.613281 408.785156 181.984375 405.710938 C 179.734375 403.851562 180.203125 399.746094 183.042969 398.722656 C 189.953125 395.917969 198.128906 394.078125 205.230469 397.304688 C 209.71875 399.113281 213.148438 402.644531 217.273438 405.066406 C 217.640625 401.785156 217.960938 398.128906 215.886719 395.292969 C 212.117188 390.230469 206.214844 387.355469 200.4375 385.203125 C 193.824219 383.023438 186.914062 380.921875 179.871094 381.558594 C 175.472656 382.164062 172.390625 385.6875 169.246094 388.46875 C 164.226562 393.390625 158.644531 397.757812 154.027344 403.089844 C 149.871094 408.238281 145.988281 413.941406 144.574219 420.519531 C 143.390625 426.058594 144.132812 431.804688 145.539062 437.230469 C 146.632812 441.636719 149.207031 445.4375 150.996094 449.558594 C 156.5625 462.113281 161.808594 474.824219 165.867188 487.953125 C 167.074219 491.894531 167.960938 495.929688 168.5625 500.011719 C 169.480469 506.953125 171.875 513.613281 172.484375 520.601562 C 173.136719 527.476562 173.707031 534.347656 174.246094 541.230469 C 174.332031 544.964844 171.988281 548.191406 169.0625 550.292969 C 167.042969 551.699219 164.976562 553.949219 162.277344 553.316406 C 160.3125 552.5 159.585938 550.261719 159.28125 548.339844 C 157.03125 534.371094 154.914062 520.386719 152.28125 506.484375 C 151.144531 496.917969 147.316406 488.003906 144.21875 478.964844 C 140.023438 466.609375 133.433594 455.230469 129.128906 442.925781 C 125.273438 430.972656 126.367188 417.640625 131.636719 406.289062 C 136.984375 396.019531 144.566406 387.042969 153.445312 379.65625 C 147.984375 378.34375 142.65625 376.496094 137.4375 374.429688 C 132.9375 372.449219 128.3125 369.820312 125.761719 365.4375 Z M 125.761719 365.4375 " fill-opacity="1" fill-rule="nonzero"/><path fill="#8dc63f" d="M 254.734375 461.140625 C 257.964844 460.257812 261.28125 461.800781 263.652344 463.945312 C 267.113281 467.253906 269.027344 471.953125 269.527344 476.671875 C 269.996094 483.550781 269.675781 491.058594 265.4375 496.847656 C 261.765625 501.78125 257.425781 506.601562 256.070312 512.789062 C 254.300781 519.839844 255.914062 527.226562 258.242188 533.953125 C 258.84375 535.96875 259.640625 538.226562 258.660156 540.265625 C 257.582031 542.152344 255.160156 542.523438 253.179688 542.410156 C 247.84375 541.855469 243.386719 538.042969 240.84375 533.488281 C 235.089844 523.378906 235.539062 510.347656 241.234375 500.3125 C 244.925781 493.949219 249.414062 487.925781 251.644531 480.832031 C 252.859375 477.023438 254.464844 473.0625 253.617188 469 C 253.15625 466.410156 252.226562 463 254.734375 461.140625 Z M 254.734375 461.140625 " fill-opacity="1" fill-rule="nonzero"/><path fill="#8dc63f" d="M 297.351562 461.054688 C 301.121094 460.246094 304.835938 462.375 307.25 465.144531 C 310.4375 468.9375 312.105469 473.886719 312.261719 478.816406 C 312.625 485.640625 311.15625 492.875 306.765625 498.289062 C 303.167969 502.71875 299.296875 507.335938 298.109375 513.085938 C 296.832031 520.019531 298.046875 527.160156 300.410156 533.730469 C 301.0625 535.839844 302.285156 538.476562 300.625 540.441406 C 299.429688 542.230469 297.074219 542.566406 295.089844 542.359375 C 290.347656 541.785156 286.207031 538.644531 283.777344 534.625 C 279.09375 526.957031 278.21875 517.382812 280.234375 508.742188 C 281.65625 502.269531 285.960938 497.066406 289.210938 491.457031 C 292.828125 485.953125 295.054688 479.617188 296.304688 473.191406 C 296.882812 469.242188 293.636719 464.128906 297.351562 461.054688 Z M 297.351562 461.054688 " fill-opacity="1" fill-rule="nonzero"/><path fill="#8dc63f" d="M 336.472656 489.148438 C 338.191406 488.082031 340.433594 489.140625 341.316406 490.800781 C 343.089844 494.046875 343.59375 497.867188 343.277344 501.519531 C 342.914062 505.195312 341.066406 508.507812 340.421875 512.121094 C 339.640625 515.367188 339.695312 518.726562 339.773438 522.042969 C 339.960938 527.140625 341.890625 531.957031 342.613281 536.96875 C 343.054688 539.574219 341.109375 542.464844 338.304688 542.378906 C 332.636719 542.621094 327.773438 538.515625 325.222656 533.746094 C 320.464844 524.976562 321.003906 514.257812 324.117188 505.035156 C 326.167969 498.558594 330.28125 492.273438 336.472656 489.148438 Z M 336.472656 489.148438 " fill-opacity="1" fill-rule="nonzero"/><path fill="#8dc63f" d="M 241.089844 553.429688 C 258.84375 553.082031 276.605469 553.289062 294.359375 553.296875 C 302.398438 553.210938 310.410156 553.984375 318.441406 554.007812 C 339.363281 554.957031 360.269531 556.902344 380.886719 560.6875 C 386.628906 561.910156 392.539062 563.308594 397.472656 566.625 C 399.433594 567.867188 400.371094 570.246094 400.101562 572.519531 C 398.175781 593.859375 390.683594 614.78125 378.242188 632.265625 C 370.0625 643.675781 359.304688 653.085938 347.335938 660.378906 C 343.878906 662.707031 339.980469 664.277344 336.472656 666.5 C 335.96875 669.875 336.828125 673.496094 335.230469 676.664062 C 333.789062 679.574219 330.613281 681.046875 327.667969 681.96875 C 320.566406 684.054688 313.128906 684.652344 305.765625 684.929688 C 295.332031 685.753906 284.867188 685.414062 274.417969 685.441406 C 262.078125 684.878906 249.59375 684.609375 237.539062 681.628906 C 235.054688 680.988281 232.285156 680.023438 231.058594 677.566406 C 229.0625 674.199219 229.714844 670.160156 229.621094 666.4375 C 219.574219 661.28125 210 655.101562 201.621094 647.496094 C 181.816406 629.714844 169.90625 603.894531 167.867188 577.46875 C 167.804688 572.917969 166.816406 567.660156 169.886719 563.8125 C 172.796875 561.105469 176.894531 560.347656 180.613281 559.347656 C 200.492188 555.136719 220.859375 554.324219 241.089844 553.429688 M 234.609375 571.894531 C 221.816406 572.648438 209 573.136719 196.273438 574.75 C 192.9375 575.226562 189.03125 575.714844 187.0625 578.839844 C 188.164062 582.417969 192.21875 582.84375 195.316406 583.554688 C 210.882812 586.273438 226.691406 587.113281 242.441406 588.042969 C 249.101562 587.988281 255.742188 588.496094 262.394531 588.726562 C 276.585938 588.875 290.773438 588.851562 304.960938 588.730469 C 326.273438 587.921875 347.648438 587.445312 368.785156 584.40625 C 373.195312 583.535156 378.144531 583.347656 381.785156 580.410156 C 383.09375 579.628906 382.460938 577.738281 381.242188 577.269531 C 377.746094 575.386719 373.675781 575.105469 369.828125 574.507812 C 350.363281 572.304688 330.769531 571.988281 311.210938 571.261719 C 295.167969 571.019531 279.121094 571.183594 263.078125 571.15625 C 253.582031 571.09375 244.101562 571.902344 234.609375 571.894531 Z M 234.609375 571.894531 " fill-opacity="1" fill-rule="nonzero"/></svg>