<svg xmlns="http://www.w3.org/2000/svg" xmlns:xlink="http://www.w3.org/1999/xlink" width="1080" zoomAndPan="magnify" viewBox="0 0 810 809.999993" height="1080" preserveAspectRatio="xMidYMid meet" version="1.0"><rect x="-81" width="972" fill="#ffffff" y="-80.999999" height="971.999992" fill-opacity="1"/><rect x="-81" width="972" fill="#ffffff" y="-80.999999" height="971.999992" fill-opacity="1"/><path fill="#8dc63f" d="M 374.199219 124.230469 C 378.886719 123.773438 384.847656 125.824219 386.398438 130.75 C 387.890625 135.476562 388.671875 174.957031 386.652344 178.816406 C 385.027344 181.917969 382.097656 183.097656 378.96875 184.113281 C 374.148438 184.332031 368.347656 183.914062 366.460938 178.539062 C 364.320312 172.445312 364.226562 134.1875 366.59375 129.648438 C 368.15625 126.65625 371.179688 125.292969 374.199219 124.230469 Z M 374.199219 124.230469 " fill-opacity="1" fill-rule="nonzero"/><path fill="#8dc63f" d="M 307.988281 144.65625 C 317.28125 143.980469 322.8125 153.277344 328.621094 159.199219 C 338.664062 169.445312 365.617188 186.753906 342.847656 196.867188 C 330.554688 199.808594 300.6875 164.15625 299.394531 160.109375 C 297.082031 152.875 300.65625 146.46875 307.988281 144.65625 Z M 307.988281 144.65625 " fill-opacity="1" fill-rule="nonzero"/><path fill="#8dc63f" d="M 441.640625 144.65625 C 450.863281 143.195312 460.707031 151.371094 455.613281 160.707031 C 453.0625 165.386719 422.542969 197.0625 416.269531 198.882812 C 411.070312 199.058594 399.800781 192.109375 401.707031 185.671875 C 403.074219 181.050781 436.269531 147.679688 441.640625 144.65625 Z M 441.640625 144.65625 " fill-opacity="1" fill-rule="nonzero"/><path fill="#8dc63f" d="M 571.507812 562.359375 C 602.476562 559.6875 632.828125 584.941406 635.003906 616.132812 C 637.359375 649.839844 613.550781 678.273438 579.511719 680.53125 C 564.285156 681.34375 549.742188 677.222656 537.960938 667.359375 C 495.949219 632.179688 518.417969 566.605469 571.507812 562.359375 Z M 571.507812 562.359375 " fill-opacity="1" fill-rule="nonzero"/><path fill="#8dc63f" d="M 233.65625 562.324219 C 316.726562 559.25 318.886719 673.421875 244.832031 680.421875 C 164.671875 686.234375 156.3125 570.375 233.65625 562.324219 Z M 233.65625 562.324219 " fill-opacity="1" fill-rule="nonzero"/><path fill="#8dc63f" d="M 372.972656 200.265625 C 384.171875 198.707031 395.429688 203.957031 403.148438 211.855469 C 415.847656 224.859375 415.441406 237.003906 415.273438 253.890625 C 438.757812 254.746094 481.183594 245.175781 487.640625 278.742188 C 491.320312 278.4375 495.253906 278.859375 498.964844 278.890625 L 556.878906 278.90625 C 601.859375 278.84375 602.585938 289.738281 623.925781 328.617188 C 638.359375 354.917969 653.324219 380.925781 668.179688 406.992188 L 681.804688 430.9375 C 689.835938 444.859375 690.210938 440.558594 698.636719 450.355469 C 707.558594 460.738281 705.886719 473.253906 705.882812 486.046875 L 705.875 560.949219 C 705.875 578.769531 708.753906 594.363281 693.523438 607.292969 C 681.71875 617.3125 666.0625 616.4375 651.496094 615.28125 C 646.9375 552.199219 569.714844 522.878906 524.28125 565.171875 C 511.195312 577.347656 499.78125 597.476562 499.191406 615.636719 C 478.683594 616.109375 458.097656 615.769531 437.582031 615.769531 L 357.824219 615.769531 C 343.699219 615.769531 329.257812 616.371094 315.164062 615.597656 C 314.597656 601.015625 307.773438 585.441406 298.890625 574.011719 C 256.605469 519.621094 170.382812 546.246094 162.527344 615.066406 C 146.398438 616.097656 127.070312 618.613281 114.609375 606.140625 C 101.222656 592.738281 104.113281 577.167969 104.125 559.894531 L 104.078125 290.636719 C 103.976562 257.777344 124.957031 253.882812 152.421875 253.898438 L 338.378906 253.964844 C 338.347656 228.738281 342.683594 203.84375 372.972656 200.265625 Z M 488.414062 301.125 C 487.976562 308.636719 488.132812 316.203125 488.121094 323.726562 L 488.140625 360.289062 C 488.1875 385.019531 487.6875 409.832031 488.269531 434.554688 L 597.085938 434.5625 C 617.296875 434.5625 637.550781 434.839844 657.757812 434.449219 C 657.410156 431.753906 642.726562 407.71875 639.722656 402.433594 L 601.519531 334.921875 C 595.34375 324.027344 588.722656 303.308594 574.488281 301.457031 C 551.097656 298.410156 513.125 301.394531 488.414062 301.125 Z M 259.46875 308.667969 C 238.429688 309.167969 241.5 322.6875 241.496094 338.347656 L 241.511719 368.75 L 211.648438 368.707031 C 196.394531 368.6875 182.339844 366.398438 182.472656 386.042969 C 182.625 408.855469 175.925781 424.347656 203.957031 424.632812 C 216.207031 424.757812 229.378906 423.210938 241.484375 424.851562 L 241.472656 456.308594 C 241.363281 490.265625 250.378906 485.335938 280.289062 484.292969 C 299.59375 483.910156 297.027344 470.996094 296.894531 456.039062 C 296.804688 445.691406 296.683594 434.820312 297.347656 424.496094 C 308.226562 424.15625 319.152344 424.394531 330.03125 424.402344 C 357.917969 424.421875 356.648438 420.5 356.640625 396.566406 C 356.632812 373.769531 357.019531 368.671875 331.996094 368.703125 C 321.128906 368.71875 307.894531 369.597656 297.269531 368.300781 C 295.480469 353.683594 297.207031 333.347656 296.679688 317.9375 C 288.269531 304.285156 274.308594 308.753906 259.46875 308.667969 Z M 259.46875 308.667969 " fill-opacity="1" fill-rule="nonzero"/></svg>