<svg xmlns="http://www.w3.org/2000/svg" xmlns:xlink="http://www.w3.org/1999/xlink" width="1080" zoomAndPan="magnify" viewBox="0 0 810 809.999993" height="1080" preserveAspectRatio="xMidYMid meet" version="1.0"><defs><clipPath id="6a6b586a0f"><path d="M 98.785156 98.019531 L 711.535156 98.019531 L 711.535156 712 L 98.785156 712 Z M 98.785156 98.019531 " clip-rule="nonzero"/></clipPath></defs><g clip-path="url(#6a6b586a0f)"><path fill="#8dc63f" d="M 223.800781 306.566406 C 223.800781 300.898438 225.59375 295.15625 229.222656 290.292969 C 238.222656 278.328125 255.363281 275.90625 267.339844 284.894531 L 346.1875 344.152344 L 397.847656 344.152344 L 397.847656 388.984375 L 330.789062 388.984375 Z M 290.722656 441.039062 L 165.671875 346.113281 L 165.671875 299.566406 C 165.671875 299.144531 165.671875 298.726562 165.632812 298.304688 C 174.203125 294.316406 184.636719 295.082031 192.625 301.207031 L 325.765625 403.789062 L 397.859375 403.789062 L 397.859375 441.027344 L 290.722656 441.027344 Z M 417.988281 152.015625 L 439.964844 152.015625 L 439.964844 113.085938 L 409.9375 113.085938 C 405.835938 113.085938 402.515625 109.800781 402.515625 105.703125 C 402.515625 101.601562 405.835938 98.28125 409.9375 98.28125 L 506.121094 98.28125 C 510.21875 98.28125 513.542969 101.601562 513.542969 105.703125 L 513.542969 321.925781 L 498.699219 321.925781 L 498.699219 113.085938 L 454.804688 113.085938 L 454.804688 152.003906 L 476.785156 152.003906 L 476.785156 169.574219 L 417.988281 169.574219 Z M 329.964844 313.394531 C 387.007812 313.988281 432.902344 297.613281 439.238281 240.632812 C 444.101562 241.546875 449.140625 241.644531 454.078125 240.878906 C 451.214844 269.609375 439.582031 291.355469 419.257812 306.085938 C 402.007812 318.617188 378.550781 325.828125 348.976562 327.679688 Z M 476.785156 184.390625 L 476.785156 197.167969 C 476.785156 213.34375 463.558594 226.566406 447.386719 226.566406 C 431.210938 226.566406 417.988281 213.34375 417.988281 197.167969 L 417.988281 184.390625 Z M 619.691406 135.382812 C 619.691406 131.285156 623.011719 127.964844 627.113281 127.964844 C 631.210938 127.964844 634.53125 131.285156 634.53125 135.382812 L 634.53125 189.808594 C 634.53125 193.871094 631.210938 197.195312 627.113281 197.195312 L 577.6875 197.195312 C 573.585938 197.195312 570.300781 193.871094 570.300781 189.808594 C 570.300781 185.710938 573.585938 182.390625 577.6875 182.390625 L 619.691406 182.390625 Z M 627.113281 105.703125 C 673.5625 105.703125 711.222656 143.359375 711.222656 189.808594 C 711.222656 236.261719 673.5625 273.882812 627.113281 273.882812 C 580.660156 273.882812 543.003906 236.261719 543.003906 189.808594 C 543.003906 143.359375 580.660156 105.703125 627.113281 105.703125 Z M 201.652344 204.15625 C 223.59375 204.15625 241.371094 221.9375 241.371094 243.878906 C 241.371094 265.78125 223.59375 283.5625 201.652344 283.5625 C 179.746094 283.5625 161.96875 265.78125 161.96875 243.878906 C 161.953125 221.9375 179.734375 204.15625 201.652344 204.15625 Z M 607.652344 660.941406 C 600.898438 654.1875 589.316406 658.980469 589.316406 668.535156 C 589.316406 678.09375 600.898438 682.882812 607.652344 676.128906 C 611.851562 671.96875 611.851562 665.140625 607.652344 660.941406 Z M 600.046875 642.992188 C 622.726562 642.992188 634.210938 670.574219 618.109375 686.636719 C 602.046875 702.703125 574.464844 691.253906 574.464844 668.535156 C 574.464844 654.4375 585.910156 642.992188 600.046875 642.992188 Z M 600.046875 625.246094 C 623.949219 625.246094 643.335938 644.632812 643.335938 668.535156 C 643.335938 692.441406 623.949219 711.824219 600.046875 711.824219 C 576.140625 711.824219 556.757812 692.441406 556.757812 668.535156 C 556.757812 644.632812 576.140625 625.246094 600.046875 625.246094 Z M 166.191406 642.992188 C 188.910156 642.992188 200.355469 670.574219 184.292969 686.636719 C 168.226562 702.703125 140.644531 691.253906 140.644531 668.535156 C 140.644531 654.4375 152.089844 642.992188 166.191406 642.992188 Z M 166.191406 625.246094 C 190.09375 625.246094 209.480469 644.632812 209.480469 668.535156 C 209.480469 692.441406 190.09375 711.824219 166.191406 711.824219 C 142.285156 711.824219 122.902344 692.441406 122.902344 668.535156 C 122.902344 644.632812 142.285156 625.246094 166.191406 625.246094 Z M 166.191406 657.792969 C 156.632812 657.792969 151.84375 669.414062 158.597656 676.128906 C 165.351562 682.882812 176.96875 678.09375 176.96875 668.535156 C 176.96875 662.585938 172.140625 657.792969 166.191406 657.792969 Z M 184.351562 600.316406 L 581.882812 600.316406 L 581.882812 613.332031 C 593.636719 609.441406 606.453125 609.441406 618.210938 613.332031 L 618.210938 570.980469 C 618.210938 565.523438 613.765625 561.078125 608.308594 561.078125 L 157.929688 561.078125 C 152.507812 561.078125 148.027344 565.523438 148.027344 570.980469 L 148.027344 613.332031 C 159.820312 609.441406 172.597656 609.441406 184.351562 613.332031 Z M 558.472656 518.628906 L 558.472656 546.273438 L 207.777344 546.273438 L 207.777344 518.628906 Z M 150.832031 455.84375 L 615.417969 455.84375 L 615.417969 347.027344 C 615.417969 332.71875 627.113281 320.988281 641.421875 320.988281 C 655.730469 320.988281 667.460938 332.71875 667.460938 347.027344 C 667.460938 395.996094 667.460938 444.953125 667.460938 493.921875 C 667.460938 499.378906 663.015625 503.824219 657.558594 503.824219 C 474.609375 503.824219 291.636719 503.824219 108.6875 503.824219 C 103.230469 503.824219 98.785156 499.378906 98.785156 493.921875 L 98.785156 299.566406 C 98.785156 285.253906 110.515625 273.523438 124.828125 273.523438 C 139.136719 273.523438 150.832031 285.253906 150.832031 299.566406 Z M 601.910156 336.742188 L 412.664062 336.742188 L 412.664062 441.039062 L 600.578125 441.039062 L 600.578125 347.027344 C 600.578125 343.460938 601.070312 340.027344 601.910156 336.742188 Z M 601.910156 336.742188 " fill-opacity="1" fill-rule="evenodd"/></g></svg>