<svg xmlns="http://www.w3.org/2000/svg" xmlns:xlink="http://www.w3.org/1999/xlink" width="1080" zoomAndPan="magnify" viewBox="0 0 810 809.999993" height="1080" preserveAspectRatio="xMidYMid meet" version="1.0"><defs><clipPath id="c50cf5ffbc"><path d="M 76.0625 81 L 733.8125 81 L 733.8125 738.75 L 76.0625 738.75 Z M 76.0625 81 " clip-rule="nonzero"/></clipPath></defs><g clip-path="url(#c50cf5ffbc)"><path fill="#8dc63f" d="M 569.460938 738.867188 L 240.527344 738.867188 C 150.070312 738.867188 76.0625 664.855469 76.0625 574.402344 L 76.0625 245.46875 C 76.0625 155.011719 150.070312 81 240.527344 81 L 569.460938 81 C 659.917969 81 733.929688 155.011719 733.929688 245.46875 L 733.929688 574.402344 C 733.929688 664.855469 659.917969 738.867188 569.460938 738.867188 Z M 569.460938 738.867188 " fill-opacity="1" fill-rule="nonzero"/></g><path fill="#ffffff" d="M 322.761719 205.71875 L 331.257812 231.898438 L 331.394531 232.035156 L 340.851562 261.089844 C 382.65625 251.769531 425.003906 251.769531 466.808594 261.089844 L 476.261719 232.035156 C 476.261719 231.898438 476.261719 231.898438 476.402344 231.898438 L 484.898438 205.71875 C 485.171875 204.625 485.445312 203.527344 485.71875 202.429688 C 487.226562 192.699219 481.609375 183.105469 472.425781 179.679688 L 471.605469 179.40625 C 449.539062 171.046875 426.648438 166.933594 403.761719 166.933594 C 380.871094 166.933594 357.984375 171.046875 336.191406 179.132812 L 335.371094 179.40625 C 326.1875 182.832031 320.566406 192.425781 322.074219 202.15625 C 322.074219 203.527344 322.351562 204.625 322.761719 205.71875 Z M 383.066406 204.214844 L 397.59375 204.214844 L 397.59375 189.683594 C 397.59375 186.394531 400.199219 183.65625 403.625 183.65625 C 407.050781 183.65625 409.65625 186.257812 409.65625 189.683594 L 409.65625 204.214844 L 424.183594 204.214844 C 427.472656 204.214844 430.210938 206.816406 430.210938 210.242188 C 430.210938 213.53125 427.609375 216.273438 424.183594 216.273438 L 409.65625 216.273438 L 409.65625 230.800781 C 409.65625 234.089844 407.050781 236.832031 403.625 236.832031 C 400.199219 236.832031 397.59375 234.226562 397.59375 230.800781 L 397.59375 216.273438 L 383.066406 216.273438 C 379.777344 216.273438 377.035156 213.667969 377.035156 210.242188 C 377.035156 206.816406 379.777344 204.214844 383.066406 204.214844 Z M 383.066406 204.214844 " fill-opacity="1" fill-rule="nonzero"/><path fill="#ffffff" d="M 468.589844 348.808594 C 434.597656 348.808594 401.566406 335.511719 368.539062 308.648438 C 355.929688 326.191406 338.933594 337.019531 318.101562 340.996094 C 325.503906 401.160156 347.429688 434.878906 387.039062 446.800781 C 395.402344 449.269531 404.308594 449.269531 412.808594 446.9375 C 421.851562 444.335938 430.210938 440.90625 437.75 436.660156 C 437.886719 436.523438 438.300781 436.386719 438.4375 436.25 C 468.039062 419.390625 485.445312 389.921875 491.613281 347.023438 C 483.9375 348.121094 476.261719 348.808594 468.589844 348.808594 Z M 468.589844 348.808594 " fill-opacity="1" fill-rule="nonzero"/><path fill="#ffffff" d="M 348.664062 439.402344 C 340.167969 432.136719 332.902344 423.363281 326.871094 412.949219 C 315.769531 393.625 308.78125 368.679688 305.355469 336.472656 C 305.082031 333.183594 307.410156 330.304688 310.5625 329.894531 C 333.039062 327.152344 349.898438 316.324219 361.960938 296.589844 C 362.917969 295.082031 364.425781 294.121094 366.070312 293.847656 C 367.851562 293.574219 369.496094 293.984375 370.867188 295.21875 C 412.667969 330.988281 453.921875 343.460938 496.960938 333.457031 C 498.878906 333.046875 500.796875 333.59375 502.167969 334.828125 C 503.539062 336.199219 504.359375 337.980469 504.222656 339.898438 C 499.425781 384.851562 482.980469 417.882812 455.566406 438.714844 L 457.625 439.261719 C 457.761719 439.261719 457.761719 439.261719 457.761719 439.261719 C 459.542969 438.851562 461.460938 439.402344 462.832031 440.496094 L 499.835938 449.132812 C 539.035156 379.507812 533.691406 313.171875 483.527344 246.5625 L 475.988281 270.136719 C 475.03125 273.015625 471.878906 274.933594 468.863281 274.113281 C 425.277344 263.558594 381.148438 263.558594 337.835938 274.113281 C 337.289062 274.25 336.878906 274.25 336.464844 274.25 C 334 274.25 331.667969 272.605469 330.847656 270.136719 L 323.308594 246.5625 C 273.148438 313.171875 267.800781 379.507812 307 449.132812 Z M 348.664062 439.402344 " fill-opacity="1" fill-rule="nonzero"/><path fill="#ffffff" d="M 484.488281 493.261719 C 484.351562 493.125 484.074219 493.125 483.9375 492.988281 L 483.390625 492.714844 C 465.300781 484.765625 458.171875 465.851562 454.609375 450.640625 L 442 447.761719 C 434.050781 452.007812 425.554688 455.574219 416.234375 458.175781 C 411.023438 459.683594 405.542969 460.507812 400.199219 460.507812 C 394.578125 460.507812 389.097656 459.683594 383.75 458.039062 C 375.9375 455.574219 368.675781 452.421875 361.960938 448.582031 L 355.929688 449.953125 C 352.367188 465.304688 345.238281 484.628906 326.871094 492.714844 L 326.324219 492.988281 C 326.1875 493.125 325.914062 493.125 325.777344 493.261719 C 335.097656 508.613281 364.425781 552.472656 405.269531 572.207031 C 445.835938 552.472656 475.167969 508.75 484.488281 493.261719 Z M 484.488281 493.261719 " fill-opacity="1" fill-rule="nonzero"/><path fill="#ffffff" d="M 314.675781 498.472656 L 259.988281 525.058594 C 250.394531 529.71875 242.722656 537.53125 238.472656 546.988281 L 238.335938 547.539062 C 232.851562 559.734375 231.070312 573.304688 233.125 587.007812 L 242.722656 652.933594 L 399.238281 652.933594 L 399.238281 582.761719 C 354.421875 560.695312 323.859375 513.957031 314.675781 498.472656 Z M 314.675781 498.472656 " fill-opacity="1" fill-rule="nonzero"/><path fill="#ffffff" d="M 571.792969 547.402344 L 571.65625 546.851562 C 567.40625 537.394531 559.730469 529.71875 550.136719 524.921875 L 495.453125 498.335938 C 486.269531 513.820312 455.707031 560.558594 411.023438 582.351562 L 411.023438 652.796875 L 567.542969 652.796875 L 577.136719 586.871094 C 579.054688 573.304688 577.273438 559.597656 571.792969 547.402344 Z M 516.421875 611.40625 L 457.074219 611.40625 C 453.785156 611.40625 451.046875 608.800781 451.046875 605.375 C 451.046875 601.949219 453.648438 599.34375 457.074219 599.34375 L 516.421875 599.34375 C 519.710938 599.34375 522.453125 601.949219 522.453125 605.375 C 522.453125 608.664062 519.710938 611.40625 516.421875 611.40625 Z M 516.421875 611.40625 " fill-opacity="1" fill-rule="nonzero"/></svg>