<svg xmlns="http://www.w3.org/2000/svg" xmlns:xlink="http://www.w3.org/1999/xlink" width="1080" zoomAndPan="magnify" viewBox="0 0 810 809.999993" height="1080" preserveAspectRatio="xMidYMid meet" version="1.0"><defs><clipPath id="50fa295e98"><path d="M 81 85.9375 L 729 85.9375 L 729 733.9375 L 81 733.9375 Z M 81 85.9375 " clip-rule="nonzero"/></clipPath></defs><g clip-path="url(#50fa295e98)"><path fill="#8dc63f" d="M 81 614.308594 L 81 205.570312 C 81 139.773438 134.832031 85.9375 200.628906 85.9375 L 609.367188 85.9375 C 675.164062 85.9375 729 139.773438 729 205.570312 L 729 614.308594 C 729 680.105469 675.164062 733.9375 609.371094 733.9375 L 200.628906 733.9375 C 134.832031 733.9375 81 680.105469 81 614.308594 Z M 81 614.308594 " fill-opacity="1" fill-rule="nonzero"/></g><path fill="#ffffff" d="M 459.703125 332.0625 C 456.914062 332.0625 454.121094 330.664062 452.625 328.273438 L 439.964844 308.433594 L 403.679688 368.25 C 402.183594 370.742188 399.492188 372.238281 396.5 372.238281 L 395.503906 372.238281 C 392.214844 371.9375 389.523438 369.648438 388.527344 366.558594 L 362.207031 286.503906 L 344.761719 325.683594 C 343.464844 328.773438 340.375 330.570312 337.183594 330.570312 L 306.28125 330.570312 C 330.007812 368.351562 367.492188 406.433594 404.878906 443.917969 C 441.863281 406.933594 478.847656 369.25 502.574219 331.964844 L 459.707031 331.964844 L 459.707031 332.0625 Z M 459.703125 332.0625 " fill-opacity="1" fill-rule="nonzero"/><path fill="#ffffff" d="M 331.800781 313.917969 L 355.925781 259.984375 C 357.320312 256.792969 360.511719 254.898438 364 255.097656 C 367.492188 255.300781 370.382812 257.589844 371.476562 260.882812 L 398.894531 344.222656 L 432.789062 288.394531 C 434.285156 285.902344 436.878906 284.40625 439.867188 284.40625 L 439.96875 284.40625 C 442.757812 284.40625 445.550781 285.804688 447.046875 288.195312 L 464.492188 315.410156 L 512.445312 315.410156 C 522.613281 295.972656 528.59375 276.730469 528.59375 257.789062 C 528.59375 225.988281 502.773438 200.066406 470.871094 200.066406 C 443.855469 200.066406 429.101562 211.332031 412.351562 244.929688 C 410.957031 247.722656 407.964844 249.515625 404.875 249.515625 C 401.6875 249.515625 398.792969 247.820312 397.398438 244.929688 C 380.652344 211.332031 365.898438 200.066406 338.878906 200.066406 C 307.078125 200.066406 281.15625 225.886719 281.15625 257.789062 C 281.15625 276.234375 286.941406 294.976562 296.609375 313.917969 Z M 331.800781 313.917969 " fill-opacity="1" fill-rule="nonzero"/><path fill="#ffffff" d="M 416.195312 572.695312 L 438.90625 533.320312 L 520.25 580.234375 L 497.539062 619.609375 Z M 416.195312 572.695312 " fill-opacity="1" fill-rule="nonzero"/><path fill="#ffffff" d="M 642.941406 329.46875 C 640.847656 293.578125 636.859375 287.199219 636.160156 286.5 C 634.167969 284.609375 629.679688 280.621094 626.691406 281.714844 C 624.695312 282.515625 617.816406 287 611.339844 315.410156 C 607.148438 334.355469 604.859375 355.6875 603.363281 369.945312 C 602.863281 375.527344 602.367188 379.8125 601.964844 382.40625 C 601.867188 383.402344 601.46875 384.398438 600.96875 385.199219 L 596.882812 392.175781 C 596.78125 392.476562 596.582031 392.675781 596.484375 392.972656 C 596.382812 393.171875 596.183594 393.371094 596.085938 393.570312 L 557.503906 460.765625 C 551.722656 470.734375 549.230469 476.914062 550.128906 479.109375 C 550.128906 479.207031 550.925781 479.90625 552.917969 480.402344 C 557.40625 481.601562 559.996094 486.1875 558.800781 490.570312 C 557.605469 495.058594 553.019531 497.648438 548.632812 496.453125 C 539.960938 494.160156 536.269531 489.175781 534.773438 485.386719 C 530.6875 475.417969 536.371094 464.054688 543.148438 452.390625 L 578.539062 391.078125 C 574.550781 386.792969 569.269531 382.308594 564.285156 383.003906 C 553.417969 384.5 542.453125 407.527344 535.074219 422.78125 C 532.28125 428.664062 529.691406 434.046875 527.097656 438.535156 C 526.898438 438.929688 526.601562 439.429688 526.101562 439.828125 C 522.613281 443.71875 517.527344 447.804688 511.046875 452.789062 C 501.777344 459.867188 490.3125 468.640625 480.042969 480.402344 C 472.066406 489.375 464.792969 502.136719 459.109375 512.304688 C 457.015625 515.894531 455.121094 519.285156 453.324219 522.273438 L 529.488281 566.238281 L 543.746094 546.699219 C 544.046875 546.300781 544.542969 545.800781 544.941406 545.402344 L 605.554688 491.171875 C 630.976562 468.441406 644.035156 439.53125 644.234375 405.335938 C 644.433594 372.835938 644.035156 348.710938 642.941406 329.46875 Z M 642.941406 329.46875 " fill-opacity="1" fill-rule="nonzero"/><path fill="#ffffff" d="M 289.429688 580.296875 L 312.160156 619.671875 L 393.507812 572.71875 L 370.78125 533.242188 Z M 289.429688 580.296875 " fill-opacity="1" fill-rule="nonzero"/><path fill="#ffffff" d="M 350.640625 512.304688 C 344.761719 502.136719 337.582031 489.375 329.707031 480.402344 C 319.539062 468.640625 307.972656 459.867188 298.703125 452.789062 C 292.222656 447.804688 286.9375 443.816406 283.648438 439.828125 C 283.347656 439.429688 282.949219 438.929688 282.652344 438.535156 C 280.160156 434.046875 277.46875 428.664062 274.675781 422.78125 C 267.398438 407.527344 256.332031 384.398438 245.464844 383.003906 C 240.582031 382.304688 235.199219 386.792969 231.210938 391.078125 L 266.699219 452.488281 C 273.480469 464.253906 279.164062 475.519531 275.074219 485.488281 C 273.578125 489.277344 269.890625 494.160156 261.21875 496.554688 C 256.730469 497.75 252.246094 495.15625 251.046875 490.671875 C 249.851562 486.1875 252.445312 481.699219 256.929688 480.503906 C 259.125 480.003906 259.722656 479.308594 259.722656 479.207031 C 260.621094 477.113281 258.125 470.933594 252.34375 460.863281 L 213.765625 393.96875 C 213.566406 393.671875 213.265625 393.371094 213.066406 392.972656 C 212.867188 392.574219 212.667969 392.175781 212.46875 391.675781 L 208.78125 385.296875 C 208.28125 384.398438 207.882812 383.402344 207.785156 382.503906 C 207.386719 379.8125 206.886719 375.425781 206.386719 370.042969 C 204.890625 355.886719 202.699219 334.453125 198.414062 315.511719 C 192.03125 287.101562 185.054688 282.515625 183.058594 281.816406 C 180.167969 280.71875 175.582031 284.707031 173.589844 286.601562 C 173.089844 287.398438 168.902344 293.78125 166.808594 329.570312 C 165.714844 348.808594 165.3125 372.933594 165.613281 405.335938 C 165.8125 439.53125 178.875 468.441406 204.292969 491.171875 L 264.90625 545.402344 C 265.304688 545.800781 265.804688 546.300781 266.101562 546.699219 L 280.257812 566.039062 L 356.324219 522.175781 C 354.730469 519.285156 352.734375 515.894531 350.640625 512.304688 Z M 350.640625 512.304688 " fill-opacity="1" fill-rule="nonzero"/></svg>