<svg xmlns="http://www.w3.org/2000/svg" xmlns:xlink="http://www.w3.org/1999/xlink" width="1080" zoomAndPan="magnify" viewBox="0 0 810 809.999993" height="1080" preserveAspectRatio="xMidYMid meet" version="1.0"><path fill="#8dc63f" d="M 81.070312 517.84375 L 157.328125 517.84375 L 157.328125 673.953125 L 81.070312 673.953125 Z M 81.070312 517.84375 " fill-opacity="1" fill-rule="nonzero"/><path fill="#8dc63f" d="M 558.851562 567.367188 C 556.058594 567.367188 553.359375 567.972656 550.808594 569.175781 L 449.121094 617.019531 C 447.542969 619.519531 445.667969 621.851562 443.546875 623.972656 C 435.734375 631.773438 425.378906 636.066406 414.367188 636.066406 L 353.078125 636.066406 C 337.21875 636.066406 321.441406 638.253906 306.1875 642.542969 C 305.203125 642.8125 304.21875 642.949219 303.246094 642.949219 C 298.535156 642.949219 294.203125 639.84375 292.867188 635.082031 C 291.246094 629.34375 294.582031 623.378906 300.332031 621.757812 C 317.5 616.925781 335.246094 614.46875 353.078125 614.46875 L 414.367188 614.46875 C 419.617188 614.46875 424.542969 612.417969 428.269531 608.707031 C 429.714844 607.261719 430.929688 605.589844 431.859375 603.765625 C 433.34375 600.890625 433.964844 598.613281 434.019531 595.886719 C 434.113281 590.742188 432.117188 585.828125 428.402344 582.035156 C 424.558594 578.109375 419.226562 575.855469 413.773438 575.855469 L 327.984375 575.855469 C 320.628906 575.855469 313.261719 574.113281 306.6875 570.820312 L 238.242188 536.523438 C 234.652344 534.714844 230.632812 533.773438 226.625 533.773438 L 178.925781 533.773438 L 178.925781 655.988281 L 349.675781 720.625 C 360.164062 724.523438 371.824219 723.621094 381.625 718.085938 L 567.867188 602.902344 C 567.976562 602.835938 568.097656 602.769531 568.207031 602.714844 C 572.824219 600.082031 576.035156 595.777344 577.25 590.59375 C 578.476562 585.425781 577.503906 580.132812 574.535156 575.71875 C 571.011719 570.484375 565.15625 567.367188 558.851562 567.367188 Z M 558.851562 567.367188 " fill-opacity="1" fill-rule="nonzero"/><path fill="#8dc63f" d="M 652.144531 145.785156 L 728.929688 145.785156 L 728.929688 301.890625 L 652.144531 301.890625 Z M 652.144531 145.785156 " fill-opacity="1" fill-rule="nonzero"/><path fill="#8dc63f" d="M 427.851562 101.648438 L 241.605469 216.835938 C 241.496094 216.902344 241.375 216.96875 241.265625 217.035156 C 236.652344 219.65625 233.4375 223.960938 232.222656 229.128906 C 230.996094 234.3125 231.96875 239.605469 234.9375 244.015625 C 238.460938 249.253906 244.316406 252.371094 250.621094 252.371094 C 253.414062 252.371094 256.113281 251.765625 258.664062 250.5625 L 360.351562 202.714844 C 361.945312 200.21875 363.808594 197.898438 365.925781 195.765625 C 373.753906 187.964844 384.105469 183.671875 395.105469 183.671875 L 456.398438 183.671875 C 472.253906 183.671875 488.035156 181.5 503.300781 177.191406 C 509.035156 175.574219 515 178.921875 516.605469 184.65625 C 518.226562 190.394531 514.894531 196.359375 509.144531 197.980469 C 491.976562 202.8125 474.226562 205.265625 456.398438 205.265625 L 395.105469 205.265625 C 389.855469 205.265625 384.929688 207.320312 381.203125 211.03125 C 379.773438 212.460938 378.558594 214.121094 377.640625 215.929688 C 377.628906 215.941406 377.628906 215.957031 377.613281 215.96875 C 377.574219 216.039062 377.546875 216.105469 377.519531 216.171875 C 376.101562 218.953125 375.507812 221.195312 375.46875 223.867188 C 375.359375 228.996094 377.359375 233.90625 381.070312 237.699219 C 384.917969 241.628906 390.261719 243.882812 395.699219 243.882812 L 481.488281 243.882812 C 488.84375 243.882812 496.214844 245.625 502.785156 248.917969 L 571.230469 283.210938 C 574.820312 285.019531 578.84375 285.964844 582.851562 285.964844 L 630.550781 285.964844 L 630.550781 163.75 L 459.796875 99.113281 C 449.3125 95.210938 437.648438 96.128906 427.851562 101.648438 Z M 427.851562 101.648438 " fill-opacity="1" fill-rule="nonzero"/><path fill="#8dc63f" d="M 491.746094 420.492188 C 520.046875 392.175781 520.046875 346.269531 491.746094 317.96875 C 477.585938 303.808594 459.027344 296.738281 440.484375 296.738281 C 421.925781 296.738281 403.378906 303.808594 389.222656 317.96875 C 375.0625 303.808594 356.503906 296.738281 337.960938 296.738281 C 319.402344 296.738281 300.855469 303.808594 286.699219 317.96875 C 258.382812 346.269531 258.382812 392.175781 286.699219 420.492188 L 389.222656 523.015625 Z M 491.746094 420.492188 " fill-opacity="1" fill-rule="nonzero"/></svg>