<svg xmlns="http://www.w3.org/2000/svg" xmlns:xlink="http://www.w3.org/1999/xlink" width="1080" zoomAndPan="magnify" viewBox="0 0 810 809.999993" height="1080" preserveAspectRatio="xMidYMid meet" version="1.0"><defs><clipPath id="30a9f25286"><path d="M 72.238281 72.238281 L 737.488281 72.238281 L 737.488281 737.488281 L 72.238281 737.488281 Z M 72.238281 72.238281 " clip-rule="nonzero"/></clipPath></defs><g clip-path="url(#30a9f25286)"><path fill="#8dc63f" d="M 737.757812 405 C 737.757812 410.445312 737.625 415.886719 737.359375 421.328125 C 737.089844 426.765625 736.691406 432.195312 736.15625 437.613281 C 735.621094 443.035156 734.957031 448.4375 734.15625 453.824219 C 733.359375 459.210938 732.425781 464.574219 731.363281 469.917969 C 730.300781 475.257812 729.109375 480.570312 727.785156 485.851562 C 726.460938 491.136719 725.011719 496.382812 723.429688 501.59375 C 721.847656 506.804688 720.140625 511.972656 718.304688 517.101562 C 716.472656 522.230469 714.511719 527.308594 712.429688 532.339844 C 710.34375 537.371094 708.136719 542.347656 705.808594 547.273438 C 703.480469 552.195312 701.035156 557.058594 698.464844 561.859375 C 695.898438 566.664062 693.214844 571.398438 690.417969 576.070312 C 687.617188 580.742188 684.703125 585.34375 681.679688 589.871094 C 678.652344 594.398438 675.519531 598.847656 672.273438 603.222656 C 669.03125 607.597656 665.679688 611.890625 662.226562 616.097656 C 658.769531 620.308594 655.214844 624.429688 651.558594 628.464844 C 647.898438 632.5 644.144531 636.445312 640.296875 640.296875 C 636.445312 644.144531 632.5 647.898438 628.464844 651.558594 C 624.429688 655.214844 620.308594 658.769531 616.097656 662.226562 C 611.890625 665.679688 607.597656 669.03125 603.222656 672.273438 C 598.847656 675.519531 594.398438 678.652344 589.871094 681.679688 C 585.34375 684.703125 580.742188 687.617188 576.070312 690.417969 C 571.398438 693.214844 566.664062 695.898438 561.859375 698.464844 C 557.058594 701.035156 552.195312 703.480469 547.273438 705.808594 C 542.347656 708.136719 537.371094 710.34375 532.339844 712.429688 C 527.308594 714.511719 522.230469 716.472656 517.101562 718.304688 C 511.972656 720.140625 506.804688 721.847656 501.59375 723.429688 C 496.382812 725.011719 491.136719 726.460938 485.851562 727.785156 C 480.570312 729.109375 475.257812 730.300781 469.917969 731.363281 C 464.574219 732.425781 459.210938 733.359375 453.824219 734.15625 C 448.4375 734.957031 443.035156 735.621094 437.613281 736.15625 C 432.195312 736.691406 426.765625 737.089844 421.328125 737.359375 C 415.886719 737.625 410.445312 737.757812 405 737.757812 C 399.550781 737.757812 394.109375 737.625 388.671875 737.359375 C 383.230469 737.089844 377.800781 736.691406 372.382812 736.15625 C 366.960938 735.621094 361.558594 734.957031 356.171875 734.15625 C 350.785156 733.359375 345.421875 732.425781 340.082031 731.363281 C 334.738281 730.300781 329.425781 729.109375 324.144531 727.785156 C 318.863281 726.460938 313.613281 725.011719 308.402344 723.429688 C 303.191406 721.847656 298.023438 720.140625 292.894531 718.304688 C 287.769531 716.472656 282.6875 714.511719 277.65625 712.429688 C 272.625 710.34375 267.648438 708.136719 262.726562 705.808594 C 257.800781 703.480469 252.941406 701.035156 248.136719 698.464844 C 243.332031 695.898438 238.597656 693.214844 233.925781 690.417969 C 229.253906 687.617188 224.65625 684.703125 220.128906 681.679688 C 215.597656 678.652344 211.148438 675.519531 206.773438 672.273438 C 202.398438 669.03125 198.109375 665.679688 193.898438 662.226562 C 189.6875 658.769531 185.566406 655.214844 181.53125 651.558594 C 177.496094 647.898438 173.550781 644.144531 169.703125 640.296875 C 165.851562 636.445312 162.097656 632.5 158.441406 628.464844 C 154.78125 624.429688 151.226562 620.308594 147.773438 616.097656 C 144.316406 611.890625 140.96875 607.597656 137.722656 603.222656 C 134.480469 598.847656 131.34375 594.398438 128.320312 589.871094 C 125.292969 585.34375 122.378906 580.742188 119.582031 576.070312 C 116.78125 571.398438 114.097656 566.664062 111.53125 561.859375 C 108.964844 557.058594 106.515625 552.195312 104.1875 547.273438 C 101.859375 542.347656 99.652344 537.371094 97.570312 532.339844 C 95.484375 527.308594 93.523438 522.230469 91.691406 517.101562 C 89.855469 511.972656 88.148438 506.804688 86.566406 501.59375 C 84.988281 496.382812 83.535156 491.136719 82.210938 485.851562 C 80.886719 480.570312 79.695312 475.257812 78.632812 469.917969 C 77.570312 464.574219 76.640625 459.210938 75.839844 453.824219 C 75.042969 448.4375 74.375 443.035156 73.839844 437.613281 C 73.308594 432.195312 72.90625 426.765625 72.640625 421.328125 C 72.371094 415.886719 72.238281 410.445312 72.238281 405 C 72.238281 399.554688 72.371094 394.109375 72.640625 388.671875 C 72.90625 383.230469 73.308594 377.800781 73.839844 372.382812 C 74.375 366.960938 75.042969 361.558594 75.839844 356.171875 C 76.640625 350.785156 77.570312 345.421875 78.632812 340.082031 C 79.695312 334.738281 80.886719 329.425781 82.210938 324.144531 C 83.535156 318.863281 84.988281 313.613281 86.566406 308.402344 C 88.148438 303.191406 89.855469 298.023438 91.691406 292.894531 C 93.523438 287.769531 95.484375 282.6875 97.570312 277.65625 C 99.652344 272.625 101.859375 267.648438 104.1875 262.726562 C 106.515625 257.800781 108.964844 252.941406 111.53125 248.136719 C 114.097656 243.332031 116.78125 238.597656 119.582031 233.925781 C 122.378906 229.253906 125.292969 224.65625 128.320312 220.128906 C 131.34375 215.597656 134.480469 211.148438 137.722656 206.773438 C 140.96875 202.398438 144.316406 198.109375 147.773438 193.898438 C 151.226562 189.6875 154.78125 185.566406 158.441406 181.53125 C 162.097656 177.496094 165.851562 173.554688 169.703125 169.703125 C 173.550781 165.851562 177.496094 162.097656 181.53125 158.441406 C 185.566406 154.78125 189.6875 151.226562 193.898438 147.773438 C 198.109375 144.316406 202.398438 140.96875 206.773438 137.722656 C 211.148438 134.480469 215.597656 131.34375 220.128906 128.320312 C 224.65625 125.292969 229.253906 122.378906 233.925781 119.582031 C 238.597656 116.78125 243.332031 114.097656 248.136719 111.53125 C 252.941406 108.964844 257.800781 106.515625 262.726562 104.1875 C 267.648438 101.859375 272.625 99.652344 277.65625 97.570312 C 282.6875 95.484375 287.769531 93.523438 292.894531 91.691406 C 298.023438 89.855469 303.191406 88.148438 308.402344 86.566406 C 313.613281 84.988281 318.863281 83.535156 324.144531 82.210938 C 329.425781 80.886719 334.738281 79.695312 340.082031 78.632812 C 345.421875 77.570312 350.785156 76.640625 356.171875 75.839844 C 361.558594 75.042969 366.960938 74.375 372.382812 73.839844 C 377.800781 73.308594 383.230469 72.90625 388.671875 72.640625 C 394.109375 72.371094 399.550781 72.238281 405 72.238281 C 410.445312 72.238281 415.886719 72.371094 421.328125 72.640625 C 426.765625 72.90625 432.195312 73.308594 437.613281 73.839844 C 443.035156 74.375 448.4375 75.042969 453.824219 75.839844 C 459.210938 76.640625 464.574219 77.570312 469.917969 78.632812 C 475.257812 79.695312 480.570312 80.886719 485.851562 82.210938 C 491.136719 83.535156 496.382812 84.988281 501.59375 86.566406 C 506.804688 88.148438 511.972656 89.855469 517.101562 91.691406 C 522.230469 93.523438 527.308594 95.484375 532.339844 97.570312 C 537.371094 99.652344 542.347656 101.859375 547.273438 104.1875 C 552.195312 106.515625 557.058594 108.964844 561.859375 111.53125 C 566.664062 114.097656 571.398438 116.78125 576.070312 119.582031 C 580.742188 122.378906 585.34375 125.292969 589.871094 128.320312 C 594.398438 131.34375 598.847656 134.480469 603.222656 137.722656 C 607.597656 140.96875 611.890625 144.316406 616.097656 147.773438 C 620.308594 151.226562 624.429688 154.78125 628.464844 158.441406 C 632.5 162.097656 636.445312 165.851562 640.296875 169.703125 C 644.144531 173.554688 647.898438 177.496094 651.558594 181.53125 C 655.214844 185.566406 658.769531 189.6875 662.226562 193.898438 C 665.679688 198.109375 669.03125 202.398438 672.273438 206.773438 C 675.519531 211.148438 678.652344 215.597656 681.679688 220.128906 C 684.703125 224.65625 687.617188 229.253906 690.417969 233.925781 C 693.214844 238.597656 695.898438 243.332031 698.464844 248.136719 C 701.035156 252.941406 703.480469 257.800781 705.808594 262.726562 C 708.136719 267.648438 710.34375 272.625 712.429688 277.65625 C 714.511719 282.6875 716.472656 287.769531 718.304688 292.894531 C 720.140625 298.023438 721.847656 303.191406 723.429688 308.402344 C 725.011719 313.613281 726.460938 318.863281 727.785156 324.144531 C 729.109375 329.425781 730.300781 334.738281 731.363281 340.082031 C 732.425781 345.421875 733.359375 350.785156 734.15625 356.171875 C 734.957031 361.558594 735.621094 366.960938 736.15625 372.382812 C 736.691406 377.800781 737.089844 383.230469 737.359375 388.671875 C 737.625 394.109375 737.757812 399.554688 737.757812 405 Z M 737.757812 405 " fill-opacity="1" fill-rule="nonzero"/></g><path fill="#ffffff" d="M 320.5625 568.328125 L 320.5625 396.539062 L 221.84375 396.539062 L 221.84375 568.191406 L 320.5625 568.191406 Z M 243.195312 419.695312 L 299.070312 419.695312 L 299.070312 465.867188 L 243.195312 465.867188 Z M 243.195312 499.003906 L 299.070312 499.003906 L 299.070312 545.171875 L 243.195312 545.171875 Z M 243.195312 499.003906 " fill-opacity="1" fill-rule="nonzero"/><path fill="#ffffff" d="M 200.074219 361.324219 L 320.5625 361.324219 L 320.5625 380.875 L 200.074219 380.875 Z M 200.074219 361.324219 " fill-opacity="1" fill-rule="nonzero"/><path fill="#ffffff" d="M 489.4375 568.328125 L 588.15625 568.328125 L 588.15625 396.539062 L 489.4375 396.539062 Z M 510.925781 419.695312 L 566.804688 419.695312 L 566.804688 465.867188 L 510.925781 465.867188 Z M 510.925781 499.003906 L 566.804688 499.003906 L 566.804688 545.171875 L 510.925781 545.171875 Z M 510.925781 499.003906 " fill-opacity="1" fill-rule="nonzero"/><path fill="#ffffff" d="M 489.4375 361.324219 L 609.921875 361.324219 L 609.921875 380.875 L 489.4375 380.875 Z M 489.4375 361.324219 " fill-opacity="1" fill-rule="nonzero"/><path fill="#ffffff" d="M 336.226562 568.328125 L 357.027344 568.328125 L 357.027344 483.058594 C 357.027344 478.761719 360.492188 475.15625 364.929688 475.15625 L 441.601562 475.15625 C 445.898438 475.15625 449.503906 478.621094 449.503906 483.058594 L 449.503906 568.328125 L 473.90625 568.328125 L 473.90625 312.796875 C 473.769531 312.65625 473.492188 312.65625 473.351562 312.519531 C 472.796875 312.242188 472.105469 311.824219 471.550781 311.546875 C 471.132812 311.269531 470.578125 310.992188 470.164062 310.714844 C 470.027344 310.578125 469.886719 310.578125 469.75 310.4375 C 469.332031 310.160156 468.777344 309.886719 468.363281 309.609375 C 467.808594 309.332031 467.253906 308.914062 466.699219 308.5 C 466.421875 308.359375 466.144531 308.082031 465.726562 307.804688 C 465.589844 307.667969 465.3125 307.527344 465.171875 307.390625 C 464.894531 307.113281 464.617188 306.972656 464.203125 306.695312 C 463.785156 306.417969 463.371094 306.003906 462.953125 305.726562 C 462.539062 305.449219 462.121094 305.03125 461.707031 304.753906 C 461.566406 304.617188 461.429688 304.617188 461.289062 304.476562 C 461.011719 304.339844 460.875 304.0625 460.597656 303.921875 C 460.457031 303.785156 460.320312 303.644531 460.179688 303.644531 C 460.042969 303.507812 460.042969 303.507812 459.902344 303.367188 C 459.488281 302.953125 458.933594 302.535156 458.515625 302.121094 C 458.101562 301.703125 457.6875 301.289062 457.269531 300.871094 C 457.132812 300.734375 456.855469 300.457031 456.714844 300.316406 C 456.300781 299.902344 456.023438 299.625 455.605469 299.207031 C 455.46875 299.070312 455.46875 299.070312 455.328125 298.929688 C 455.328125 298.929688 455.191406 298.792969 455.191406 298.792969 C 455.191406 298.792969 455.050781 298.652344 455.050781 298.652344 C 455.050781 298.652344 455.050781 298.652344 454.914062 298.515625 C 454.636719 298.097656 454.21875 297.820312 453.941406 297.40625 C 453.804688 297.269531 453.804688 297.269531 453.664062 297.128906 C 452.417969 295.605469 451.167969 294.078125 450.058594 292.554688 L 336.089844 292.554688 L 336.089844 568.328125 Z M 356.609375 318.898438 L 453.386719 318.898438 L 453.386719 369.089844 L 356.609375 369.089844 Z M 356.609375 398.621094 L 453.386719 398.621094 L 453.386719 448.8125 L 356.609375 448.8125 Z M 356.609375 398.621094 " fill-opacity="1" fill-rule="nonzero"/><path fill="#ffffff" d="M 442.019531 276.332031 C 441.742188 275.359375 441.324219 274.390625 441.046875 273.417969 C 440.769531 272.449219 440.492188 271.339844 440.214844 270.371094 C 440.078125 269.953125 440.078125 269.539062 439.9375 269.121094 C 439.660156 268.152344 439.523438 267.042969 439.382812 266.070312 C 439.382812 265.65625 439.246094 265.378906 439.246094 264.960938 C 439.246094 264.683594 439.105469 264.40625 439.105469 264.128906 C 438.96875 263.574219 438.96875 263.160156 438.96875 262.605469 C 438.828125 260.941406 438.691406 259.277344 438.691406 257.613281 C 438.691406 257.476562 438.691406 257.476562 438.691406 257.335938 L 319.730469 257.335938 L 319.730469 276.886719 L 442.15625 276.886719 C 442.019531 276.746094 442.019531 276.46875 442.019531 276.332031 Z M 442.019531 276.332031 " fill-opacity="1" fill-rule="nonzero"/><path fill="#ffffff" d="M 372.691406 490.824219 L 433.558594 490.824219 L 433.558594 568.191406 L 372.691406 568.191406 Z M 372.691406 490.824219 " fill-opacity="1" fill-rule="nonzero"/><path fill="#ffffff" d="M 192.03125 583.996094 L 617.964844 583.996094 L 617.964844 601.464844 L 192.03125 601.464844 Z M 192.03125 583.996094 " fill-opacity="1" fill-rule="nonzero"/><path fill="#ffffff" d="M 454.359375 259.140625 C 454.359375 259.695312 454.496094 260.386719 454.496094 260.941406 C 454.496094 261.496094 454.636719 262.050781 454.636719 262.605469 C 454.636719 263.019531 454.773438 263.4375 454.773438 263.851562 C 454.914062 264.546875 455.050781 265.378906 455.191406 266.070312 C 455.328125 266.488281 455.328125 266.902344 455.46875 267.320312 C 455.605469 267.597656 455.605469 268.011719 455.746094 268.429688 C 455.746094 268.707031 455.882812 268.984375 455.882812 269.121094 C 456.023438 269.539062 456.160156 269.816406 456.160156 270.230469 C 456.300781 270.648438 456.4375 270.925781 456.578125 271.339844 C 456.714844 271.757812 456.855469 272.035156 456.992188 272.449219 C 457.269531 273.140625 457.546875 273.835938 457.824219 274.667969 C 457.964844 275.222656 458.238281 275.636719 458.515625 276.054688 C 460.042969 279.382812 461.984375 282.570312 464.339844 285.484375 C 464.617188 285.757812 464.757812 286.035156 465.035156 286.3125 C 465.3125 286.589844 465.589844 286.867188 465.726562 287.144531 C 466.003906 287.421875 466.28125 287.699219 466.421875 287.976562 C 466.558594 288.253906 466.835938 288.394531 466.976562 288.671875 C 467.253906 288.949219 467.667969 289.363281 467.945312 289.640625 C 468.222656 289.917969 468.363281 290.058594 468.640625 290.335938 C 468.640625 290.335938 468.777344 290.472656 468.777344 290.472656 C 469.332031 291.027344 469.886719 291.445312 470.441406 292 C 470.71875 292.277344 470.996094 292.414062 471.273438 292.691406 C 471.273438 292.691406 471.410156 292.832031 471.410156 292.832031 C 471.6875 293.109375 472.105469 293.386719 472.519531 293.664062 C 472.660156 293.800781 472.9375 293.941406 473.074219 294.078125 C 473.492188 294.355469 473.90625 294.632812 474.324219 294.910156 C 474.460938 294.910156 474.460938 295.050781 474.601562 295.050781 C 475.15625 295.464844 475.710938 295.742188 476.125 296.160156 C 476.679688 296.574219 477.234375 296.851562 477.789062 297.269531 C 478.484375 297.683594 479.175781 297.960938 479.871094 298.375 C 480.148438 298.515625 480.5625 298.652344 480.839844 298.929688 C 481.117188 299.070312 481.535156 299.207031 481.949219 299.484375 C 482.644531 299.761719 483.335938 300.039062 484.167969 300.457031 C 489.574219 302.535156 495.398438 303.785156 501.636719 303.785156 C 527.84375 303.785156 549.195312 282.433594 549.195312 256.226562 C 549.195312 230.023438 527.84375 208.671875 501.636719 208.671875 C 477.097656 208.671875 456.855469 227.386719 454.359375 251.375 C 454.359375 251.375 454.359375 251.511719 454.359375 251.511719 C 454.359375 251.929688 454.21875 252.34375 454.21875 252.621094 C 454.21875 253.175781 454.082031 253.730469 454.082031 254.285156 C 454.082031 254.5625 454.082031 254.839844 454.082031 255.117188 C 454.082031 255.535156 454.082031 255.949219 454.082031 256.367188 C 454.082031 256.921875 454.082031 257.613281 454.082031 258.167969 C 454.359375 258.308594 454.359375 258.722656 454.359375 259.140625 Z M 474.460938 244.164062 L 489.992188 244.164062 L 489.992188 228.636719 L 513.699219 228.636719 L 513.699219 244.164062 L 529.230469 244.164062 L 529.230469 267.875 L 513.699219 267.875 L 513.699219 283.402344 L 489.992188 283.402344 L 489.992188 267.875 L 474.460938 267.875 Z M 474.460938 244.164062 " fill-opacity="1" fill-rule="nonzero"/></svg>