<svg xmlns="http://www.w3.org/2000/svg" xmlns:xlink="http://www.w3.org/1999/xlink" width="1080" zoomAndPan="magnify" viewBox="0 0 810 809.999993" height="1080" preserveAspectRatio="xMidYMid meet" version="1.0"><defs><clipPath id="57cfc1707a"><path d="M 76.621094 76.621094 L 733.621094 76.621094 L 733.621094 733.621094 L 76.621094 733.621094 Z M 76.621094 76.621094 " clip-rule="nonzero"/></clipPath></defs><g clip-path="url(#57cfc1707a)"><path fill="#8dc63f" d="M 404.976562 76.617188 C 586.34375 76.617188 733.375 223.652344 733.375 405.015625 C 733.375 586.378906 586.34375 733.375 404.976562 733.375 C 223.613281 733.375 76.617188 586.339844 76.617188 405.015625 C 76.617188 223.6875 223.613281 76.617188 404.976562 76.617188 Z M 570.21875 354.75 C 577.628906 347.375 582.171875 337.136719 582.171875 325.855469 C 582.171875 314.574219 577.628906 304.371094 570.21875 296.964844 C 562.808594 289.589844 552.609375 284.972656 541.289062 284.972656 C 529.972656 284.972656 519.804688 289.589844 512.433594 296.964844 C 505.023438 304.371094 500.445312 314.574219 500.445312 325.855469 C 500.445312 337.136719 505.023438 347.375 512.433594 354.75 C 519.804688 362.160156 530.007812 366.738281 541.289062 366.738281 C 552.570312 366.738281 562.808594 362.15625 570.21875 354.75 Z M 520.066406 325.855469 C 520.066406 319.972656 522.449219 314.6875 526.285156 310.851562 C 530.117188 307.015625 535.445312 304.597656 541.289062 304.597656 C 547.171875 304.597656 552.496094 307.015625 556.367188 310.851562 C 560.203125 314.6875 562.585938 319.972656 562.585938 325.855469 C 562.585938 331.738281 560.203125 337.0625 556.367188 340.898438 C 552.496094 344.734375 547.171875 347.117188 541.289062 347.117188 C 535.445312 347.117188 530.117188 344.734375 526.285156 340.898438 C 522.449219 337.0625 520.066406 331.738281 520.066406 325.855469 Z M 541.289062 336.058594 C 538.496094 336.058594 535.925781 334.902344 534.101562 333.078125 C 532.242188 331.21875 531.125 328.683594 531.125 325.855469 C 531.125 323.027344 532.238281 320.496094 534.101562 318.671875 C 535.925781 316.808594 538.496094 315.691406 541.289062 315.691406 C 544.117188 315.691406 546.6875 316.808594 548.511719 318.671875 C 550.375 320.496094 551.527344 323.027344 551.527344 325.855469 C 551.527344 328.6875 550.375 331.21875 548.511719 333.078125 C 546.6875 334.902344 544.117188 336.058594 541.289062 336.058594 Z M 580.867188 195.949219 L 618.847656 233.890625 L 604.027344 248.707031 L 595.539062 240.21875 L 574.539062 219.257812 L 566.050781 210.769531 Z M 583.808594 244.128906 L 570.402344 257.53125 L 557.222656 244.351562 L 570.628906 230.949219 Z M 434.203125 396.597656 C 432.007812 398.796875 429.105469 399.914062 426.199219 399.914062 C 423.296875 399.914062 420.390625 398.796875 418.195312 396.597656 L 418.15625 396.5625 C 415.960938 394.367188 414.878906 391.5 414.878906 388.59375 C 414.878906 385.691406 415.960938 382.785156 418.195312 380.550781 L 426.199219 372.546875 L 442.210938 388.59375 Z M 490.613281 536.335938 C 493.070312 538.792969 494.597656 542.21875 494.597656 545.980469 C 494.597656 549.703125 493.070312 553.128906 490.613281 555.585938 C 488.15625 558.042969 484.769531 559.570312 481.007812 559.570312 C 477.246094 559.570312 473.859375 558.042969 471.402344 555.585938 C 468.945312 553.128906 467.378906 549.703125 467.378906 545.980469 C 467.378906 542.21875 468.941406 538.792969 471.402344 536.335938 C 473.859375 533.878906 477.246094 532.351562 481.007812 532.351562 C 484.769531 532.351562 488.15625 533.878906 490.613281 536.335938 Z M 522.300781 572.5625 L 522.300781 543.894531 C 522.300781 532.535156 517.644531 522.222656 510.160156 514.738281 C 502.679688 507.253906 492.363281 502.601562 481.007812 502.601562 C 469.652344 502.601562 459.335938 507.253906 451.855469 514.738281 C 444.371094 522.222656 439.714844 532.539062 439.714844 543.894531 L 439.714844 614.042969 L 522.300781 614.042969 Z M 498.433594 563.367188 C 494 567.835938 487.820312 570.628906 481.007812 570.628906 C 474.195312 570.628906 468.050781 567.835938 463.582031 563.367188 C 459.152344 558.898438 456.359375 552.753906 456.359375 545.980469 C 456.359375 539.164062 459.113281 532.984375 463.582031 528.515625 C 468.050781 524.085938 474.191406 521.292969 481.007812 521.292969 C 487.820312 521.292969 494.003906 524.085938 498.433594 528.515625 C 502.898438 532.984375 505.691406 539.164062 505.691406 545.980469 C 505.65625 552.753906 502.898438 558.898438 498.433594 563.367188 Z M 620.109375 430.144531 C 620.109375 460.265625 610.503906 488.15625 594.269531 510.941406 C 579.042969 532.238281 557.96875 549.070312 533.355469 559.046875 L 533.355469 543.894531 C 533.355469 538.496094 532.535156 533.28125 530.972656 528.367188 C 548.363281 519.46875 563.105469 506.140625 573.644531 489.792969 C 584.738281 472.59375 591.179688 452.152344 591.179688 430.144531 C 591.179688 417.746094 589.132812 405.832031 585.335938 394.664062 C 582.058594 385.09375 577.515625 376.082031 571.855469 367.855469 C 574.050781 366.253906 576.097656 364.503906 578.035156 362.605469 C 583.285156 357.320312 587.421875 350.914062 590.023438 343.800781 C 598.589844 354.5625 605.550781 366.550781 610.578125 379.546875 C 616.71875 395.1875 620.109375 412.277344 620.109375 430.148438 Z M 586.339844 578.113281 C 591.253906 578.113281 595.761719 580.121094 599.035156 583.398438 C 602.3125 586.636719 604.324219 591.144531 604.324219 596.09375 L 604.324219 614.042969 L 533.359375 614.042969 L 533.359375 578.113281 Z M 375.675781 578.113281 L 428.65625 578.113281 L 428.65625 614.042969 L 357.691406 614.042969 L 357.691406 596.09375 C 357.691406 591.144531 359.738281 586.675781 362.980469 583.398438 C 366.253906 580.121094 370.757812 578.113281 375.675781 578.113281 Z M 296.515625 562.621094 C 295.25 561.355469 294.46875 559.605469 294.46875 557.707031 C 294.46875 555.808594 295.25 554.058594 296.515625 552.792969 C 297.78125 551.5625 299.496094 550.78125 301.394531 550.78125 C 303.328125 550.78125 305.082031 551.5625 306.308594 552.792969 C 307.574219 554.058594 308.355469 555.808594 308.355469 557.707031 C 308.355469 559.605469 307.574219 561.355469 306.308594 562.621094 C 305.082031 563.890625 303.328125 564.632812 301.394531 564.632812 C 299.492188 564.632812 297.78125 563.890625 296.515625 562.621094 Z M 240.816406 579.824219 C 239.214844 578.261719 238.246094 576.0625 238.246094 573.679688 C 238.246094 571.261719 239.214844 569.101562 240.816406 567.539062 C 242.378906 565.972656 244.539062 565.003906 246.921875 565.003906 C 249.339844 565.003906 251.5 565.972656 253.066406 567.539062 C 254.628906 569.101562 255.597656 571.261719 255.597656 573.679688 C 255.597656 576.0625 254.628906 578.261719 253.066406 579.824219 C 251.5 581.386719 249.339844 582.355469 246.921875 582.355469 C 244.539062 582.355469 242.378906 581.386719 240.816406 579.824219 Z M 195.914062 612.441406 C 197.511719 613.519531 199.414062 614.042969 201.460938 614.042969 L 346.671875 614.042969 L 346.671875 596.097656 C 346.671875 588.089844 349.910156 580.832031 355.160156 575.582031 C 360.445312 570.332031 367.707031 567.054688 375.710938 567.054688 L 419.347656 567.054688 C 402.855469 559.609375 387.960938 549.292969 375.265625 536.710938 C 347.078125 545.011719 324.964844 534.738281 302.882812 524.496094 C 280.542969 514.109375 258.316406 503.792969 230.613281 516.417969 L 191.59375 593.117188 C 190.441406 595.390625 189.878906 597.847656 189.878906 600.269531 C 189.878906 602.6875 190.4375 605.144531 191.59375 607.414062 C 192.710938 609.613281 194.199219 611.324219 195.914062 612.441406 Z M 288.695312 544.972656 C 291.9375 541.734375 296.441406 539.722656 301.394531 539.722656 C 306.382812 539.722656 310.890625 541.734375 314.128906 544.972656 C 317.402344 548.25 319.414062 552.753906 319.414062 557.707031 C 319.414062 562.699219 317.402344 567.164062 314.128906 570.441406 C 310.890625 573.71875 306.382812 575.730469 301.394531 575.730469 C 296.441406 575.730469 291.9375 573.71875 288.695312 570.441406 C 285.457031 567.167969 283.445312 562.699219 283.445312 557.707031 C 283.445312 552.753906 285.457031 548.25 288.695312 544.972656 Z M 232.996094 559.71875 C 236.535156 556.144531 241.484375 553.910156 246.960938 553.910156 C 252.394531 553.910156 257.347656 556.144531 260.886719 559.71875 C 264.496094 563.292969 266.691406 568.207031 266.691406 573.679688 C 266.691406 579.15625 264.496094 584.070312 260.886719 587.644531 C 257.347656 591.21875 252.394531 593.453125 246.960938 593.453125 C 241.484375 593.453125 236.535156 591.21875 232.996094 587.644531 C 229.421875 584.070312 227.1875 579.15625 227.1875 573.679688 C 227.1875 568.207031 229.421875 563.292969 232.996094 559.71875 Z M 371.054688 515.375 C 356.425781 496.535156 346.558594 473.820312 343.207031 449.0625 L 374.257812 457.363281 C 378.207031 473.078125 385.578125 487.410156 395.519531 499.625 C 405.160156 511.5 417.261719 521.332031 431.003906 528.367188 C 429.511719 533.285156 428.65625 538.496094 428.65625 543.894531 L 428.65625 559.050781 C 410.523438 551.675781 394.328125 540.65625 380.960938 526.804688 C 380.847656 526.65625 380.738281 526.546875 380.585938 526.394531 C 377.238281 522.894531 374.035156 519.210938 371.054688 515.375 Z M 340.378906 224.0625 C 342.054688 225.773438 343.132812 228.121094 343.132812 230.726562 C 343.132812 233.292969 342.054688 235.640625 340.378906 237.351562 C 338.664062 239.03125 336.316406 240.109375 333.75 240.109375 L 270.117188 240.109375 C 267.511719 240.109375 265.167969 239.03125 263.453125 237.351562 C 261.742188 235.640625 260.699219 233.292969 260.699219 230.726562 C 260.699219 228.121094 261.738281 225.773438 263.453125 224.0625 C 265.167969 222.347656 267.511719 221.304688 270.117188 221.304688 L 333.75 221.304688 C 336.320312 221.304688 338.664062 222.347656 340.378906 224.0625 Z M 326.859375 417.597656 L 416.371094 441.578125 L 414.433594 448.875 C 413.875 450.921875 412.574219 452.488281 410.933594 453.457031 C 409.21875 454.421875 407.171875 454.757812 405.160156 454.238281 L 338.476562 436.367188 C 338.328125 436.289062 338.214844 436.289062 338.066406 436.253906 L 323.546875 432.382812 C 321.535156 431.824219 319.933594 430.519531 318.96875 428.84375 C 318 427.167969 317.664062 425.082031 318.222656 423.109375 L 320.160156 415.8125 L 326.265625 417.449219 C 326.488281 417.527344 326.675781 417.5625 326.863281 417.597656 Z M 307.5 514.441406 C 326.078125 523.117188 344.769531 531.792969 366.664062 527.4375 C 365.171875 525.726562 363.757812 523.9375 362.34375 522.113281 C 345.625 500.628906 334.679688 474.492188 331.703125 445.972656 L 320.679688 443.027344 C 315.726562 441.6875 311.78125 438.449219 309.398438 434.355469 C 307.015625 430.222656 306.195312 425.15625 307.535156 420.242188 L 310.925781 407.621094 C 311.707031 404.644531 314.722656 402.894531 317.664062 403.675781 L 322.46875 404.976562 L 322.46875 251.167969 L 281.363281 251.167969 L 281.363281 268.925781 L 293.054688 268.925781 C 296.109375 268.925781 298.601562 271.386719 298.601562 274.4375 C 298.601562 277.527344 296.109375 279.984375 293.054688 279.984375 L 281.363281 279.984375 L 281.363281 295.695312 L 293.054688 295.695312 C 296.109375 295.695312 298.601562 298.191406 298.601562 301.246094 C 298.601562 304.300781 296.109375 306.792969 293.054688 306.792969 L 281.363281 306.792969 L 281.363281 322.46875 L 293.054688 322.46875 C 296.109375 322.46875 298.601562 324.964844 298.601562 328.015625 C 298.601562 331.070312 296.109375 333.566406 293.054688 333.566406 L 281.363281 333.566406 L 281.363281 349.277344 L 293.054688 349.277344 C 296.109375 349.277344 298.601562 351.734375 298.601562 354.789062 C 298.601562 357.839844 296.109375 360.296875 293.054688 360.296875 L 281.363281 360.296875 L 281.363281 376.046875 L 293.054688 376.046875 C 296.109375 376.046875 298.601562 378.503906 298.601562 381.558594 C 298.601562 384.609375 296.109375 387.066406 293.054688 387.066406 L 281.363281 387.066406 L 281.363281 402.816406 L 293.054688 402.816406 C 296.109375 402.816406 298.601562 405.273438 298.601562 408.328125 C 298.601562 411.378906 296.109375 413.835938 293.054688 413.835938 L 281.363281 413.835938 L 281.363281 415.324219 C 281.363281 416.183594 281.140625 417.039062 280.765625 417.855469 L 237.949219 501.96875 C 264.53125 494.484375 285.980469 504.460938 307.5 514.441406 Z M 283.1875 455.875 C 286.238281 452.824219 290.445312 450.921875 295.136719 450.921875 C 299.792969 450.921875 304.039062 452.824219 307.089844 455.875 C 310.105469 458.925781 312.003906 463.171875 312.003906 467.828125 C 312.003906 472.445312 310.105469 476.6875 307.089844 479.742188 C 304.039062 482.792969 299.792969 484.695312 295.136719 484.695312 C 290.445312 484.695312 286.238281 482.792969 283.1875 479.742188 C 280.132812 476.6875 278.273438 472.445312 278.273438 467.828125 C 278.273438 463.171875 280.132812 458.925781 283.1875 455.875 Z M 291.007812 471.921875 C 289.964844 470.84375 289.292969 469.429688 289.292969 467.792969 C 289.292969 466.191406 289.964844 464.738281 291.007812 463.660156 C 292.050781 462.617188 293.5 461.984375 295.136719 461.984375 C 296.738281 461.984375 298.191406 462.617188 299.234375 463.660156 C 300.3125 464.738281 300.945312 466.191406 300.945312 467.792969 C 300.945312 469.429688 300.3125 470.84375 299.234375 471.921875 C 298.191406 472.964844 296.738281 473.636719 295.136719 473.636719 C 293.5 473.636719 292.046875 472.964844 291.007812 471.921875 Z M 504.613281 289.144531 C 495.195312 298.527344 489.386719 311.523438 489.386719 325.855469 C 489.386719 336.503906 492.589844 346.410156 498.0625 354.636719 L 460.976562 391.722656 L 423.035156 353.78125 L 537.007812 239.773438 L 545.496094 248.300781 L 566.457031 269.261719 L 574.984375 277.75 L 570.070312 282.628906 C 561.839844 277.152344 551.976562 273.914062 541.289062 273.914062 C 526.992188 273.914062 513.996094 279.761719 504.613281 289.144531 Z M 504.613281 289.144531 " fill-opacity="1" fill-rule="evenodd"/></g></svg>