<svg xmlns="http://www.w3.org/2000/svg" xmlns:xlink="http://www.w3.org/1999/xlink" width="1080" zoomAndPan="magnify" viewBox="0 0 810 809.999993" height="1080" preserveAspectRatio="xMidYMid meet" version="1.0"><defs><clipPath id="089a2eb813"><path d="M 204.929688 223 L 520 223 L 520 385 L 204.929688 385 Z M 204.929688 223 " clip-rule="nonzero"/></clipPath><clipPath id="8004c05512"><path d="M 350 238 L 605.429688 238 L 605.429688 584 L 350 584 Z M 350 238 " clip-rule="nonzero"/></clipPath></defs><path fill="#8dc63f" d="M 439.195312 690.351562 C 436.277344 685.089844 428.863281 680.78125 419.039062 678.75 L 422.078125 619.929688 C 419.796875 619.996094 417.390625 620.121094 414.726562 620.375 C 406.804688 621.074219 400.214844 622.46875 394.699219 624.433594 L 394.320312 624.558594 L 393.9375 624.683594 C 393.242188 624.875 392.480469 625.191406 391.78125 625.445312 L 391.71875 625.507812 L 391.65625 625.507812 C 391.210938 625.699219 390.707031 625.890625 390.261719 626.078125 C 389.628906 626.332031 388.996094 626.585938 388.359375 626.902344 L 391.023438 678.6875 C 381.199219 680.777344 373.78125 685.027344 370.867188 690.285156 C 329.730469 692.570312 294.492188 699.035156 294.492188 709.113281 C 294.492188 721.976562 351.472656 728.886719 405.03125 728.886719 C 458.652344 728.886719 515.632812 721.914062 515.632812 709.113281 C 515.570312 699.097656 480.328125 692.632812 439.195312 690.351562 Z M 439.195312 690.351562 " fill-opacity="1" fill-rule="nonzero"/><g clip-path="url(#089a2eb813)"><path fill="#8dc63f" d="M 285.996094 384.019531 C 287.011719 383.324219 287.960938 382.5625 288.914062 381.867188 C 297.597656 375.589844 306.28125 369.824219 313.632812 365.003906 L 321.238281 360.0625 L 328.96875 355.117188 L 336.578125 350.300781 L 336.640625 350.238281 L 336.703125 350.171875 L 344.5625 345.355469 C 354.957031 338.953125 365.226562 332.933594 375.683594 326.785156 C 381.640625 323.300781 387.472656 319.875 393.304688 316.515625 C 407.820312 308.085938 421.574219 300.164062 434.945312 291.863281 C 454.214844 279.945312 469.617188 269.488281 482.863281 259.347656 C 458.273438 260.675781 431.714844 261.375 404.902344 261.375 C 360.15625 261.375 316.039062 259.472656 280.609375 255.921875 C 264.636719 254.339844 252.46875 252.628906 243.339844 251.042969 C 240.929688 250.597656 240.996094 247.175781 243.339844 246.734375 C 252.402344 245.148438 264.445312 243.4375 280.164062 241.851562 C 315.660156 238.304688 359.964844 236.339844 404.902344 236.339844 C 440.523438 236.339844 475.765625 237.542969 506.570312 239.824219 C 507.902344 238.554688 509.296875 237.414062 510.625 236.210938 L 511.957031 235.007812 L 512.019531 234.945312 L 512.082031 234.878906 L 512.335938 234.691406 C 512.402344 234.625 512.527344 234.5625 512.589844 234.5 L 513.035156 234.054688 L 513.796875 233.359375 L 515.886719 231.394531 C 517.089844 230.191406 518.167969 229.175781 519.183594 228.035156 C 485.210938 225.121094 444.835938 223.535156 404.964844 223.535156 C 308.878906 223.535156 209.558594 232.597656 205.121094 247.808594 C 204.992188 248.191406 204.929688 248.507812 204.929688 248.886719 C 204.929688 249.140625 204.929688 249.394531 204.992188 249.648438 C 205.628906 254.972656 211.015625 291.542969 235.796875 330.207031 C 246.953125 347.574219 262.988281 366.90625 285.996094 384.019531 Z M 285.996094 384.019531 " fill-opacity="1" fill-rule="nonzero"/></g><path fill="#8dc63f" d="M 336.894531 201.984375 C 337.019531 201.984375 337.210938 201.984375 337.335938 201.984375 C 349.316406 201.984375 384.492188 178.152344 390.578125 157.996094 C 397.742188 151.722656 407.375 144.496094 419.734375 137.523438 C 428.546875 132.769531 438.496094 127.890625 449.839844 123.960938 C 461.1875 119.964844 473.738281 116.609375 487.175781 114.960938 C 490.535156 114.578125 493.957031 114.070312 497.378906 114.007812 C 499.089844 113.945312 500.800781 113.820312 502.578125 113.753906 C 502.957031 113.691406 503.335938 113.691406 503.71875 113.691406 C 504.160156 113.691406 504.605469 113.691406 505.046875 113.691406 L 507.457031 113.753906 C 509.042969 113.753906 510.625 113.820312 512.273438 113.820312 C 514.238281 114.007812 516.265625 114.199219 518.296875 114.453125 L 521.335938 114.769531 L 522.097656 114.832031 L 523.300781 115.085938 C 524.886719 115.464844 526.535156 115.65625 528.121094 116.164062 C 540.859375 119.394531 553.027344 127.191406 559.9375 138.15625 C 563.425781 143.609375 565.640625 149.695312 566.339844 156.222656 C 566.402344 156.980469 566.53125 157.871094 566.59375 158.628906 C 566.53125 159.328125 566.53125 159.960938 566.53125 160.660156 L 566.59375 161.671875 L 566.59375 162.433594 L 566.53125 162.878906 L 566.148438 166.488281 L 565.960938 168.265625 L 565.894531 168.707031 C 565.894531 168.707031 565.894531 168.898438 565.832031 168.960938 L 565.261719 171.8125 C 564.945312 173.714844 564.3125 175.617188 563.867188 177.582031 C 559.496094 192.984375 550.113281 208.640625 538.007812 223.21875 C 536.359375 225.246094 534.585938 227.273438 532.746094 229.300781 C 531.351562 230.886719 529.894531 232.40625 528.4375 233.992188 C 526.726562 235.765625 525.265625 237.226562 523.429688 239.0625 L 521.273438 241.089844 L 520.515625 241.789062 L 519.816406 242.484375 C 519.816406 242.484375 519.816406 242.484375 519.753906 242.550781 C 519.753906 242.550781 519.691406 242.550781 519.625 242.675781 L 519.246094 242.992188 L 517.851562 244.261719 C 514.046875 247.621094 510.371094 251.167969 506.316406 254.402344 C 504.792969 255.667969 503.210938 257 501.6875 258.269531 C 499.28125 260.296875 496.808594 262.324219 494.210938 264.226562 C 477.730469 277.21875 459.667969 289.199219 440.652344 300.988281 C 421.636719 312.777344 401.542969 324.125 381.132812 336.039062 C 370.867188 342.0625 360.660156 348.019531 350.203125 354.484375 L 342.34375 359.300781 L 334.738281 364.117188 L 327.070312 369.0625 L 319.527344 374.003906 C 311.539062 379.203125 303.363281 384.652344 295.25 390.546875 C 293.03125 392.132812 290.8125 393.78125 288.59375 395.492188 C 278.265625 403.351562 268.058594 412.164062 258.679688 422.558594 C 256.398438 425.21875 254.113281 427.945312 251.898438 430.734375 L 248.726562 435.105469 C 247.648438 436.566406 246.636719 438.023438 245.683594 439.671875 L 242.769531 444.425781 L 242.074219 445.628906 L 241.375 447.023438 L 238.585938 452.601562 L 237.890625 453.996094 C 237.699219 454.4375 237.445312 454.945312 237.320312 455.261719 L 235.605469 459.507812 C 232.4375 467.179688 230.535156 476.179688 230.664062 485.050781 C 230.664062 489.554688 231.171875 493.988281 232.121094 498.234375 C 233.007812 502.546875 234.402344 506.667969 235.988281 510.597656 C 239.285156 518.457031 243.847656 525.300781 248.980469 531.320312 C 254.179688 537.28125 259.945312 542.476562 266.222656 546.851562 C 272.496094 551.289062 279.214844 554.902344 286.25 557.753906 C 289.800781 559.148438 293.476562 560.414062 297.277344 561.367188 C 298.167969 561.621094 299.371094 561.871094 300.382812 562.125 C 301.460938 562.378906 302.601562 562.632812 303.238281 562.695312 L 305.457031 563.078125 C 306.597656 563.265625 306.152344 563.203125 306.597656 563.203125 L 307.230469 563.265625 L 308.5625 563.394531 L 318.890625 564.472656 C 322.316406 564.726562 325.738281 564.726562 329.160156 564.789062 C 330.492188 564.789062 331.824219 564.851562 333.089844 564.851562 C 333.46875 564.851562 333.851562 564.851562 334.292969 564.851562 L 344.4375 564.28125 L 346.972656 564.15625 L 349.441406 563.835938 L 359.394531 562.570312 C 362.625 562.0625 365.859375 561.429688 369.09375 560.859375 C 370.867188 560.542969 372.578125 560.222656 374.289062 559.84375 L 374.164062 557.878906 L 372.261719 521.5625 C 371.691406 521.6875 371.058594 521.816406 370.421875 521.941406 C 367.699219 522.511719 364.910156 523.144531 362.183594 523.527344 C 359.457031 523.90625 356.730469 524.414062 354.007812 524.792969 L 345.894531 525.617188 L 343.867188 525.808594 L 341.902344 525.871094 L 337.90625 525.996094 L 333.914062 526.125 L 333.597656 526.125 C 332.394531 526.125 331.125 525.996094 329.921875 525.996094 C 327.257812 525.808594 324.660156 525.808594 322 525.554688 L 314.203125 524.539062 L 313.1875 524.414062 L 312.746094 524.351562 C 312.679688 524.351562 312.492188 524.285156 312.425781 524.285156 L 310.527344 523.90625 C 309.636719 523.78125 309.386719 523.652344 308.941406 523.527344 C 308.496094 523.398438 308.246094 523.398438 307.609375 523.144531 C 305.519531 522.574219 303.425781 521.75 301.335938 520.925781 C 297.214844 519.152344 293.097656 516.871094 289.484375 514.207031 C 282.128906 508.882812 276.234375 501.847656 273.511719 494.941406 C 272.875 493.230469 272.304688 491.519531 271.988281 489.871094 C 271.609375 488.160156 271.480469 486.511719 271.546875 484.863281 C 271.609375 481.566406 272.242188 478.332031 273.828125 474.785156 L 275.601562 470.539062 C 275.730469 470.15625 275.855469 469.96875 275.980469 469.777344 L 276.363281 469.144531 L 277.058594 467.875 L 277.757812 466.542969 L 278.074219 465.910156 L 278.515625 465.148438 L 280.417969 462.109375 C 280.988281 461.09375 281.75 460.078125 282.511719 459.128906 L 284.730469 456.148438 C 286.3125 454.25 287.960938 452.285156 289.671875 450.382812 C 296.644531 442.777344 304.949219 435.675781 313.886719 428.957031 C 317.816406 425.980469 321.933594 423.128906 326.117188 420.339844 C 329.921875 417.738281 333.851562 415.203125 337.78125 412.667969 C 339.238281 411.71875 340.695312 410.769531 342.21875 409.816406 L 344.6875 408.234375 L 348.429688 405.824219 C 351.472656 403.859375 354.578125 401.957031 357.621094 399.992188 L 365.097656 395.238281 L 365.160156 395.175781 L 365.226562 395.113281 L 372.578125 390.613281 C 374.796875 389.28125 377.078125 387.886719 379.296875 386.554688 C 380.4375 385.859375 381.578125 385.160156 382.71875 384.527344 C 388.421875 381.167969 394.191406 377.808594 399.832031 374.511719 L 400.210938 374.257812 L 402.683594 372.800781 C 410.039062 368.554688 417.578125 364.179688 425.121094 359.746094 C 426.960938 358.667969 428.796875 357.589844 430.636719 356.511719 C 441.476562 350.109375 452.378906 343.519531 463.089844 336.863281 C 468.097656 333.757812 473.039062 330.589844 477.855469 327.417969 C 481.027344 325.328125 484.132812 323.234375 487.238281 321.082031 C 489.140625 319.75 491.039062 318.417969 492.941406 317.085938 C 495.351562 315.375 497.695312 313.730469 500.039062 312.015625 C 501.753906 310.75 503.464844 309.546875 505.113281 308.277344 C 508.027344 306.121094 510.816406 303.96875 513.605469 301.8125 C 515.824219 300.101562 517.976562 298.390625 520.132812 296.679688 C 520.132812 296.679688 520.132812 296.679688 520.195312 296.679688 C 523.492188 294.015625 526.851562 291.289062 530.273438 288.3125 C 532.113281 286.726562 534.015625 285.078125 535.914062 283.367188 C 539.148438 280.453125 542.507812 277.347656 545.929688 274.050781 L 545.992188 273.988281 L 546.058594 273.925781 L 547.453125 272.65625 L 548.402344 271.707031 L 548.527344 271.578125 L 549.097656 271.007812 L 549.164062 270.945312 L 552.015625 268.09375 L 552.964844 267.078125 C 554.675781 265.304688 556.515625 263.402344 558.035156 261.753906 C 559.429688 260.234375 561.207031 258.269531 563.105469 256.050781 C 563.804688 255.226562 564.5 254.402344 565.199219 253.578125 C 566.085938 252.5 566.972656 251.421875 567.859375 250.34375 C 568.050781 250.15625 568.242188 249.902344 568.429688 249.648438 L 568.558594 249.457031 L 568.683594 249.332031 L 569.253906 248.570312 C 569.382812 248.445312 569.507812 248.316406 569.570312 248.128906 C 570.839844 246.542969 572.105469 244.894531 573.3125 243.246094 C 575.085938 240.902344 576.796875 238.429688 578.445312 235.957031 C 579.078125 234.945312 579.777344 233.992188 580.410156 232.980469 L 581.425781 231.457031 C 583.832031 227.65625 586.179688 223.726562 588.269531 219.730469 C 593.65625 209.527344 598.222656 198.816406 601.011719 187.34375 C 601.644531 184.425781 602.40625 181.636719 602.785156 178.722656 L 603.480469 174.347656 C 603.480469 174.160156 603.480469 174.160156 603.480469 174.160156 C 603.546875 174.097656 603.546875 173.777344 603.671875 172.828125 L 603.671875 172.382812 L 603.734375 171.496094 L 603.863281 169.660156 L 604.117188 166.046875 L 604.117188 163.636719 L 604.050781 161.039062 C 603.988281 159.328125 603.925781 157.554688 603.863281 155.839844 C 603.734375 154.195312 603.480469 152.734375 603.226562 151.152344 C 601.453125 138.855469 596.574219 127.066406 589.664062 117.429688 C 582.753906 107.796875 574.007812 100.191406 564.691406 94.550781 C 555.3125 88.972656 545.421875 85.296875 535.535156 83.269531 C 533.0625 82.699219 530.589844 82.445312 528.121094 82.0625 L 526.28125 81.808594 C 525.519531 81.746094 525.332031 81.683594 525.265625 81.683594 C 525.265625 81.683594 525.265625 81.683594 525.203125 81.683594 L 524.761719 81.683594 L 524 81.621094 L 520.957031 81.429688 C 518.929688 81.304688 516.902344 81.175781 514.871094 81.113281 C 512.527344 81.175781 510.117188 81.175781 507.773438 81.238281 C 506.570312 81.304688 505.429688 81.304688 504.289062 81.304688 C 503.082031 81.367188 501.941406 81.367188 500.929688 81.492188 C 498.773438 81.746094 496.617188 81.9375 494.527344 82.191406 C 490.28125 82.570312 486.222656 83.394531 482.230469 84.15625 C 450.414062 90.558594 425.3125 103.042969 406.425781 115.65625 C 401.796875 118.953125 397.296875 121.933594 393.367188 125.226562 C 391.402344 126.8125 389.5 128.398438 387.664062 129.855469 C 385.886719 131.4375 384.175781 133.023438 382.59375 134.542969 C 380.945312 136.066406 379.359375 137.460938 377.964844 138.980469 C 376.570312 140.503906 375.175781 141.960938 373.910156 143.355469 C 372.832031 144.496094 371.4375 145.320312 369.914062 145.574219 C 361.992188 147.03125 353.625 150.644531 348.617188 158.882812 C 337.019531 178.027344 322.886719 201.289062 336.894531 201.984375 Z M 336.894531 201.984375 " fill-opacity="1" fill-rule="nonzero"/><g clip-path="url(#8004c05512)"><path fill="#8dc63f" d="M 604.875 247.875 C 603.925781 244.578125 598.476562 241.535156 589.539062 238.875 C 588.839844 239.949219 588.144531 240.964844 587.445312 242.042969 C 584.402344 246.542969 581.109375 251.042969 577.683594 255.351562 L 577.050781 256.113281 C 576.796875 256.429688 576.542969 256.746094 576.355469 257 C 572.867188 261.375 569.191406 265.496094 566.023438 269.042969 C 564.058594 271.199219 561.839844 273.480469 559.746094 275.699219 L 556.832031 278.613281 L 556.199219 279.25 L 555.882812 279.566406 L 554.929688 280.453125 L 554.804688 280.578125 L 553.28125 281.972656 C 543.773438 291.039062 535.09375 298.644531 526.789062 305.234375 C 509.359375 319.242188 489.773438 332.996094 468.667969 346.117188 C 448.511719 358.667969 427.59375 370.835938 407.945312 382.183594 L 405.539062 383.640625 C 396.410156 388.964844 386.964844 394.476562 378.027344 399.929688 L 370.738281 404.429688 L 363.261719 409.183594 C 360.21875 411.085938 357.113281 413.050781 354.070312 415.015625 L 350.332031 417.359375 C 352.800781 418.183594 355.335938 419.007812 357.875 419.769531 C 360.027344 430.289062 367.886719 439.417969 378.980469 445.058594 L 382.277344 508.441406 L 382.527344 513.890625 L 382.78125 519.34375 L 384.746094 557.5625 L 385 563.015625 L 385.253906 568.464844 L 386.015625 583.042969 C 393.050781 580.632812 400.71875 578.796875 409.46875 577.464844 C 414.285156 576.769531 418.722656 576.261719 423.03125 575.945312 L 423.15625 575.945312 C 423.539062 575.945312 423.917969 575.878906 424.363281 575.878906 L 425.375 556.484375 L 425.945312 545.078125 L 426.136719 540.957031 L 427.910156 506.285156 L 428.101562 502.609375 L 431.082031 445.183594 C 442.109375 439.542969 449.96875 430.417969 452.125 419.894531 C 517.15625 400.183594 553.917969 361.964844 574.074219 330.460938 C 598.664062 292.050781 604.117188 255.734375 604.875 250.027344 C 604.875 250.027344 604.875 250.027344 604.875 249.964844 C 604.941406 249.710938 605.003906 249.394531 605.003906 249.078125 C 605.003906 249.078125 605.003906 249.078125 605.003906 249.015625 C 605.066406 248.570312 605.003906 248.191406 604.875 247.875 Z M 604.875 247.875 " fill-opacity="1" fill-rule="nonzero"/></g><path fill="#8dc63f" d="M 589.03125 533.222656 C 588.777344 532.714844 589.222656 533.605469 588.398438 531.828125 L 587.953125 530.878906 L 587.003906 529.039062 L 586.117188 527.203125 L 585.671875 526.25 L 584.910156 524.984375 C 583.832031 523.273438 582.757812 521.5625 581.679688 519.851562 C 581.109375 518.960938 580.539062 518.265625 579.96875 517.566406 L 578.191406 515.414062 C 573.375 509.773438 567.417969 504.765625 560.890625 501.277344 C 554.425781 497.730469 547.515625 495.128906 540.796875 493.671875 C 534.078125 492.152344 527.359375 491.390625 520.894531 491.074219 C 518.421875 490.949219 515.949219 490.949219 513.476562 490.949219 C 509.546875 490.949219 505.683594 491.074219 501.878906 491.328125 C 500.292969 491.390625 498.835938 491.519531 497.253906 491.644531 L 494.96875 491.835938 L 492.308594 492.152344 C 489.457031 492.46875 486.539062 492.785156 483.6875 493.164062 C 482.292969 493.292969 480.582031 493.609375 479 493.863281 L 474.179688 494.6875 L 469.363281 495.574219 L 464.800781 496.589844 C 461.820312 497.285156 458.714844 497.917969 455.738281 498.679688 C 452.757812 499.441406 449.777344 500.203125 446.863281 500.960938 C 444.199219 501.660156 441.601562 502.417969 438.941406 503.179688 L 438.75 506.855469 L 436.976562 541.527344 C 443.566406 539.371094 450.09375 537.28125 456.558594 535.378906 C 459.285156 534.617188 461.949219 533.859375 464.671875 533.097656 C 467.398438 532.335938 469.996094 531.765625 472.722656 531.070312 L 476.714844 530.054688 L 480.519531 529.292969 L 484.324219 528.535156 C 485.652344 528.28125 486.730469 527.964844 488.253906 527.773438 C 491.105469 527.328125 493.957031 526.949219 496.871094 526.441406 L 497.949219 526.316406 L 498.457031 526.25 C 498.457031 526.25 498.648438 526.25 498.710938 526.1875 C 498.710938 526.1875 498.773438 526.1875 498.773438 526.1875 C 498.773438 526.1875 498.773438 526.1875 498.835938 526.1875 L 500.484375 526 C 501.816406 525.871094 503.210938 525.679688 504.476562 525.554688 C 509.546875 525.046875 514.492188 524.859375 519.246094 524.859375 L 519.878906 524.859375 C 524.824219 524.921875 529.515625 525.363281 533.886719 526.125 C 538.261719 526.886719 542.128906 528.28125 545.550781 529.929688 C 549.035156 531.574219 551.824219 533.792969 554.296875 536.519531 L 555.246094 537.535156 C 555.566406 537.851562 555.882812 538.230469 556.070312 538.546875 C 556.515625 539.183594 556.960938 539.753906 557.402344 540.324219 C 557.53125 540.511719 557.65625 540.578125 557.78125 540.765625 L 558.289062 541.71875 L 559.242188 543.554688 L 560.253906 545.394531 L 560.507812 545.902344 L 560.636719 546.21875 C 563.929688 553.253906 564.5 560.859375 562.601562 567.324219 C 561.648438 570.558594 560.066406 573.472656 557.972656 576.007812 C 557.402344 576.578125 556.832031 577.210938 556.261719 577.847656 L 554.359375 579.492188 C 553.03125 580.507812 551.445312 581.648438 550.367188 582.15625 C 550.050781 582.347656 549.796875 582.535156 549.480469 582.726562 C 549.417969 582.789062 549.035156 582.917969 548.78125 583.042969 L 547.832031 583.421875 L 544.980469 584.5625 L 541.875 585.578125 L 538.640625 586.402344 C 534.332031 587.480469 529.832031 588.175781 525.269531 588.621094 C 519.945312 589.191406 514.554688 589.382812 509.105469 589.382812 C 505.175781 589.382812 501.183594 589.253906 497.1875 589.066406 C 478.046875 588.175781 458.777344 586.210938 439.636719 586.148438 L 438.304688 586.148438 C 437.101562 586.148438 435.898438 586.148438 434.695312 586.210938 C 432.917969 586.210938 431.082031 586.277344 429.304688 586.402344 C 427.53125 586.464844 425.757812 586.59375 423.917969 586.71875 C 419.609375 587.035156 415.363281 587.480469 411.113281 588.113281 C 402.75 589.382812 394.507812 591.28125 386.710938 594.261719 C 385.761719 594.578125 384.875 594.960938 383.921875 595.339844 C 383.101562 595.65625 382.277344 595.972656 381.453125 596.351562 C 380.183594 596.925781 378.851562 597.558594 377.648438 598.191406 C 377.203125 598.445312 376.699219 598.636719 376.253906 598.890625 C 374.667969 599.648438 373.085938 600.410156 371.628906 601.359375 C 369.664062 602.566406 367.761719 603.707031 365.859375 604.910156 C 363.957031 606.242188 362.121094 607.699219 360.28125 609.09375 C 359.394531 609.789062 358.445312 610.488281 357.621094 611.183594 L 355.464844 613.214844 C 353.945312 614.671875 352.421875 616.066406 350.902344 617.523438 C 348.113281 620.375 345.449219 623.292969 342.914062 626.082031 C 337.84375 631.722656 333.21875 637.171875 328.652344 641.988281 C 326.371094 644.398438 324.027344 646.804688 321.871094 648.898438 L 320.035156 650.609375 L 318.320312 652.128906 C 317.117188 653.207031 315.976562 654.160156 314.773438 655.171875 C 305.328125 663.097656 295.757812 669.308594 286.695312 674.0625 C 277.695312 678.816406 269.011719 682.300781 261.402344 684.710938 C 253.734375 687.179688 247.144531 688.574219 241.691406 689.398438 C 236.304688 690.222656 231.996094 690.414062 229.269531 690.476562 C 228.890625 690.476562 228.507812 690.476562 228.128906 690.476562 C 227.429688 690.476562 226.734375 690.476562 226.226562 690.476562 L 225.972656 690.476562 C 225.210938 690.476562 224.832031 690.476562 224.832031 690.476562 L 224.769531 690.476562 C 222.867188 690.476562 221.21875 691.933594 221.03125 693.898438 C 220.839844 695.992188 222.359375 697.828125 224.453125 698.082031 C 224.453125 698.082031 224.832031 698.148438 225.59375 698.210938 C 226.355469 698.273438 227.429688 698.464844 229.015625 698.527344 C 230.789062 698.652344 232.945312 698.78125 235.542969 698.78125 C 237.636719 698.78125 240.042969 698.71875 242.644531 698.527344 C 248.601562 698.148438 255.890625 697.132812 264.257812 695.167969 C 272.625 693.140625 282.066406 690.289062 292.273438 685.722656 C 302.414062 681.222656 313.1875 675.136719 324.089844 667.214844 C 325.421875 666.203125 326.816406 665.25 328.148438 664.171875 L 330.238281 662.523438 L 332.203125 660.941406 C 335.054688 658.59375 337.652344 656.25 340.316406 653.777344 C 345.578125 648.835938 350.710938 643.636719 355.84375 638.441406 C 358.445312 635.839844 361.042969 633.304688 363.769531 630.832031 C 365.097656 629.691406 366.492188 628.550781 367.886719 627.410156 L 370.105469 625.507812 C 370.804688 625.003906 371.5 624.558594 372.199219 624.117188 C 373.59375 623.164062 374.988281 622.277344 376.316406 621.390625 C 377.902344 620.503906 379.421875 619.679688 381.007812 618.855469 C 382.527344 617.902344 384.304688 617.332031 385.953125 616.636719 C 386.523438 616.382812 387.15625 616.128906 387.726562 615.875 C 388.804688 615.433594 389.945312 614.988281 391.085938 614.671875 C 398.058594 612.199219 405.726562 610.804688 413.714844 610.042969 C 416.628906 609.789062 419.609375 609.601562 422.585938 609.539062 C 424.550781 609.472656 426.582031 609.410156 428.609375 609.410156 C 431.96875 609.410156 435.390625 609.539062 438.875 609.726562 C 456.371094 610.613281 475.003906 613.339844 495.222656 615.242188 C 502.386719 615.875 509.867188 616.382812 517.597656 616.382812 C 520.765625 616.382812 524 616.320312 527.234375 616.128906 C 532.808594 615.8125 538.578125 615.179688 544.347656 614.039062 C 550.175781 612.894531 555.882812 611.4375 562.21875 608.523438 C 563.996094 607.699219 565.769531 606.875 567.226562 605.925781 C 568.75 604.972656 570.269531 604.148438 571.726562 603.007812 C 573.183594 601.929688 574.578125 600.855469 575.972656 599.648438 C 577.304688 598.382812 578.574219 597.113281 579.839844 595.78125 C 584.785156 590.332031 588.652344 583.804688 590.996094 576.832031 C 595.8125 562.824219 594.671875 547.230469 589.222656 534.175781 Z M 589.03125 533.222656 " fill-opacity="1" fill-rule="nonzero"/></svg>