<svg xmlns="http://www.w3.org/2000/svg" xmlns:xlink="http://www.w3.org/1999/xlink" width="1080" zoomAndPan="magnify" viewBox="0 0 810 809.999993" height="1080" preserveAspectRatio="xMidYMid meet" version="1.0"><defs><clipPath id="8933c3b1f4"><path d="M 81 81 L 729 81 L 729 729 L 81 729 Z M 81 81 " clip-rule="nonzero"/></clipPath><clipPath id="915c1f9ce7"><path d="M 81 405 C 81 583.960938 226.039062 729 405 729 C 583.960938 729 729 583.960938 729 405 C 729 226.039062 583.960938 81 405 81 C 226.039062 81 81 226.039062 81 405 " clip-rule="nonzero"/></clipPath></defs><rect x="-81" width="972" fill="#ffffff" y="-80.999999" height="971.999992" fill-opacity="1"/><rect x="-81" width="972" fill="#ffffff" y="-80.999999" height="971.999992" fill-opacity="1"/><path fill="#8dc63f" d="M 81 405 C 81 583.960938 226.039062 729 405 729 C 583.960938 729 729 583.960938 729 405 C 729 226.039062 583.960938 81 405 81 C 226.039062 81 81 226.039062 81 405 " fill-opacity="1" fill-rule="nonzero"/><path fill="#daaf04" d="M 81 405 C 81 583.960938 226.039062 729 405 729 C 583.960938 729 729 583.960938 729 405 C 729 226.039062 583.960938 81 405 81 C 226.039062 81 81 226.039062 81 405 " fill-opacity="1" fill-rule="nonzero"/><g clip-path="url(#8933c3b1f4)"><g clip-path="url(#915c1f9ce7)"><path fill="#8dc63f" d="M 81 81 L 729 81 L 729 729 L 81 729 Z M 81 81 " fill-opacity="1" fill-rule="nonzero"/></g></g><path fill="#ffffff" d="M 532.703125 236.796875 C 532.703125 248.1875 530.804688 276.160156 513.589844 293.371094 C 496.378906 310.585938 468.28125 312.484375 457.015625 312.484375 C 457.015625 303.75 458.03125 294.890625 460.054688 286.410156 C 462.710938 275.78125 467.523438 264.515625 476 255.910156 C 493.214844 238.824219 521.3125 236.925781 532.703125 236.796875 Z M 532.703125 236.796875 " fill-opacity="1" fill-rule="nonzero"/><path fill="#ffffff" d="M 468.28125 370.574219 C 466.128906 370.828125 463.976562 370.953125 461.828125 370.953125 L 461.574219 370.953125 C 460.054688 370.953125 458.535156 370.953125 457.144531 370.828125 C 458.28125 360.703125 458.535156 340.832031 447.019531 321.34375 C 446.890625 321.089844 446.640625 320.710938 446.511719 320.457031 C 437.019531 304.761719 419.808594 289.574219 389.433594 280.082031 C 386.523438 279.195312 384.875 276.03125 385.761719 273.121094 C 386.648438 270.210938 389.8125 268.566406 392.722656 269.453125 C 415.632812 276.539062 433.601562 287.296875 446.386719 301.597656 C 452.335938 308.179688 457.144531 315.648438 460.8125 323.746094 C 461.574219 325.644531 462.460938 327.417969 463.09375 329.316406 C 467.773438 342.476562 469.671875 356.652344 468.28125 370.574219 Z M 468.28125 370.574219 " fill-opacity="1" fill-rule="nonzero"/><path fill="#ffffff" d="M 356.019531 344.125 C 357.285156 344.503906 358.425781 344.757812 359.3125 345.007812 C 358.679688 348.679688 357.917969 352.351562 356.78125 355.894531 C 356.78125 356.019531 356.652344 356.148438 356.652344 356.273438 L 349.820312 384.75 C 332.226562 382.09375 302.992188 382.726562 273.882812 405.253906 C 271.476562 407.152344 270.96875 410.570312 272.867188 412.972656 C 273.882812 414.367188 275.527344 415.125 277.296875 415.125 C 278.5625 415.125 279.703125 414.746094 280.714844 413.984375 C 306.15625 394.367188 331.59375 393.484375 347.160156 395.632812 L 337.289062 436.894531 C 320.457031 436.515625 297.167969 440.4375 273.882812 458.410156 C 271.476562 460.308594 270.96875 463.726562 272.867188 466.257812 C 274.765625 468.660156 278.183594 469.167969 280.714844 467.269531 C 300.332031 452.082031 319.949219 448.15625 334.632812 448.03125 L 324.378906 490.683594 C 306.28125 492.707031 289.320312 499.796875 273.882812 511.566406 C 271.476562 513.464844 270.96875 516.882812 272.867188 519.414062 C 274.765625 521.816406 278.183594 522.324219 280.714844 520.425781 C 293.246094 510.679688 307.039062 504.605469 321.59375 502.328125 L 315.265625 528.777344 L 315.265625 529.03125 L 311.089844 546.496094 C 297.675781 550.039062 285.019531 556.367188 274.007812 564.976562 C 271.601562 566.875 271.097656 570.289062 272.996094 572.820312 C 274.007812 574.214844 275.652344 574.972656 277.425781 574.972656 C 278.691406 574.972656 279.828125 574.59375 280.84375 573.835938 C 289.070312 567.378906 298.308594 562.445312 308.179688 559.027344 L 295.902344 610.15625 C 293.878906 616.359375 287.171875 619.648438 280.96875 617.625 C 277.425781 616.484375 274.640625 613.703125 273.5 610.15625 L 212.625 356.652344 C 212.625 356.527344 212.625 356.398438 212.5 356.273438 C 199.96875 316.40625 222.242188 273.882812 262.109375 261.476562 C 269.453125 259.199219 277.046875 258.0625 284.765625 258.0625 C 326.65625 258.0625 360.578125 292.105469 360.449219 334 C 360.449219 334.125 360.449219 334.125 360.449219 334.125 C 345.515625 329.949219 309.953125 324.757812 274.132812 352.476562 C 271.730469 354.375 271.222656 357.792969 273.121094 360.324219 C 274.132812 361.714844 275.78125 362.476562 277.550781 362.476562 C 278.816406 362.476562 279.957031 362.09375 280.96875 361.335938 C 298.054688 348.171875 317.039062 341.71875 337.542969 342.097656 C 343.617188 341.71875 349.820312 342.605469 356.019531 344.125 Z M 356.019531 344.125 " fill-opacity="1" fill-rule="nonzero"/><path fill="#ffffff" d="M 331.085938 200.980469 L 295.269531 247.175781 C 293.5 246.921875 291.726562 246.796875 290.082031 246.671875 C 288.4375 246.542969 286.410156 246.542969 284.511719 246.542969 C 283.625 246.542969 282.613281 246.542969 281.726562 246.542969 C 279.070312 246.671875 276.285156 246.796875 273.628906 247.175781 L 237.9375 201.109375 C 236.164062 198.578125 236.796875 195.160156 239.203125 193.386719 C 241.609375 191.742188 244.773438 192.121094 246.671875 194.398438 L 278.945312 236.039062 L 278.945312 197.691406 C 278.945312 194.652344 281.476562 192.121094 284.511719 192.121094 C 287.550781 192.121094 290.082031 194.652344 290.082031 197.691406 L 290.082031 235.914062 L 322.355469 194.273438 C 324.253906 191.867188 327.671875 191.363281 330.203125 193.261719 C 332.605469 195.160156 332.984375 198.578125 331.085938 200.980469 Z M 331.085938 200.980469 " fill-opacity="1" fill-rule="nonzero"/><path fill="#ffffff" d="M 510.046875 373.484375 C 501.820312 373.484375 493.59375 375.003906 485.875 377.789062 C 478.40625 380.574219 470.433594 381.964844 462.460938 381.964844 L 461.828125 381.964844 C 453.601562 381.964844 445.375 380.574219 437.527344 377.789062 C 429.804688 374.878906 421.578125 373.484375 413.351562 373.484375 C 393.230469 373.484375 374.117188 381.964844 358.171875 398.039062 L 347.160156 443.726562 L 347.035156 444.109375 L 326.40625 530.042969 C 338.300781 579.53125 373.867188 613.953125 413.351562 613.953125 C 416.515625 613.953125 419.808594 613.703125 422.972656 613.320312 C 448.664062 609.652344 474.734375 609.652344 500.429688 613.320312 C 503.59375 613.828125 506.882812 613.953125 510.046875 613.953125 C 560.292969 613.953125 601.296875 560.039062 601.296875 493.71875 C 601.296875 427.402344 560.292969 373.484375 510.046875 373.484375 Z M 558.898438 561.558594 C 545.738281 580.667969 528.398438 591.300781 510.046875 591.300781 C 507.007812 591.300781 504.476562 588.769531 504.476562 585.730469 C 504.476562 582.695312 507.007812 580.164062 510.046875 580.164062 C 524.726562 580.164062 538.777344 571.304688 549.789062 555.230469 C 561.050781 538.777344 567.507812 516.375 567.507812 493.71875 C 567.507812 490.683594 570.039062 488.152344 573.074219 488.152344 C 576.113281 488.152344 578.644531 490.683594 578.644531 493.71875 C 578.515625 519.03125 571.554688 543.078125 558.898438 561.558594 Z M 558.898438 561.558594 " fill-opacity="1" fill-rule="nonzero"/></svg>